<?xml version="1.0" encoding="UTF-8"?>
<svg id="_찾혘짭찾혗짚찾혘짚찾혘쩌_2" data-name="찾혘짭찾혗짚찾혘짚찾혘쩌 2" xmlns="http://www.w3.org/2000/svg" viewBox="0 0 432.39 122.49">
  <defs>
    <style>
      .cls-1 {
        fill: none;
        stroke: #148400;
        stroke-width: 5px;
      }

      .cls-2 {
        fill: #148400;
      }

      .cls-3 {
        fill: #fff4d9;
      }
    </style>
  </defs>
  <g id="_찾혘짭찾혗짚찾혘짚찾혘쩌_1-2" data-name="찾혘짭찾혗짚찾혘짚찾혘쩌 1">
    <g>
      <g>
        <path class="cls-3" d="M371.15,122.49c-14.35,0-27.96-4.97-38.74-13.8-10.78,8.82-24.38,13.8-38.74,13.8s-27.96-4.97-38.74-13.8c-10.78,8.82-24.38,13.8-38.74,13.8s-27.96-4.97-38.74-13.8c-10.78,8.82-24.38,13.8-38.74,13.8s-27.96-4.97-38.74-13.8c-10.78,8.82-24.38,13.8-38.74,13.8C27.47,122.49,0,95.01,0,61.24S27.47,0,61.24,0c14.35,0,27.96,4.97,38.74,13.8C110.77,4.97,124.37,0,138.72,0s27.96,4.97,38.74,13.8c10.78-8.82,24.38-13.8,38.74-13.8s27.96,4.97,38.74,13.8c10.78-8.82,24.38-13.8,38.74-13.8s27.96,4.97,38.74,13.8c10.78-8.82,24.38-13.8,38.74-13.8,33.77,0,61.24,27.47,61.24,61.24s-27.47,61.24-61.24,61.24Z"/>
        <path class="cls-2" d="M371.15,15c-16.22,0-30.48,8.36-38.74,21-8.25-12.64-22.52-21-38.74-21s-30.48,8.36-38.74,21c-8.25-12.64-22.52-21-38.74-21s-30.48,8.36-38.74,21c-8.25-12.64-22.52-21-38.74-21s-30.48,8.36-38.74,21c-8.25-12.64-22.52-21-38.74-21-25.54,0-46.24,20.7-46.24,46.24s20.7,46.24,46.24,46.24c16.22,0,30.48-8.36,38.74-21,8.25,12.64,22.52,21,38.74,21s30.48-8.36,38.74-21c8.25,12.64,22.52,21,38.74,21s30.48-8.36,38.74-21c8.25,12.64,22.52,21,38.74,21s30.48-8.36,38.74-21c8.25,12.64,22.52,21,38.74,21,25.54,0,46.24-20.7,46.24-46.24s-20.7-46.24-46.24-46.24Z"/>
        <path class="cls-1" d="M371.15,115.49c-14.77,0-28.63-5.94-38.74-16.27-10.1,10.33-23.97,16.27-38.74,16.27s-28.64-5.94-38.74-16.27c-10.1,10.33-23.97,16.27-38.74,16.27s-28.63-5.94-38.74-16.27c-10.1,10.33-23.97,16.27-38.74,16.27s-28.64-5.94-38.74-16.27c-10.1,10.33-23.97,16.27-38.74,16.27-29.91,0-54.24-24.33-54.24-54.24S31.33,7,61.24,7c14.77,0,28.64,5.94,38.74,16.27,10.1-10.33,23.97-16.27,38.74-16.27s28.63,5.94,38.74,16.27c10.1-10.33,23.97-16.27,38.74-16.27s28.63,5.94,38.74,16.27c10.1-10.33,23.97-16.27,38.74-16.27s28.64,5.94,38.74,16.27c10.1-10.33,23.97-16.27,38.74-16.27,29.91,0,54.24,24.33,54.24,54.24s-24.33,54.24-54.24,54.24Z"/>
      </g>
      <g>
        <path class="cls-3" d="M48.39,59.34c.05.38.16.59.43.59,1.82-.59,3.76-1.29,5.69-2.09.16-.05.32-.11.48-.11.27,0,.48.11.64.38.11.16.21.38.21.59,0,.32-.21.7-.59.97-.54.43-1.18.86-1.82,1.34-.43.27-1.07.27-1.56.54-.43.32-.7.91-1.18,1.18l-1.61.97c-.38.22-.59.64-.64,1.07v.8c0,.27.05.59.11.7l.05.16c.05.05.05.16.05.21v.11l-.11.48c-.05.16-.16.75-.16,1.02l.11,2.74-.32,11.16c-.05,2.74-.86,3.54-2.63,3.54h-.16c-2.25,0-4.88-1.13-6.55-2.41-.43-.32-.64-.64-.64-.97,0-.11,0-.16.05-.27.16-.43.48-.59.86-.59.11,0,.21.05.32.05.48.11.91.16,1.4.16.27,0,.54-.05.86-.05.64-.05.8-.48.86-1.18l.27-4.88v-1.61c0-.11,0-.21.05-.32l.11-.54c.05-.21.05-.54.05-.8v-.54c0-.11-.05-.27-.11-.38l-.05-.11c-.05-.05-.05-.11-.05-.21,0-.05,0-.11.05-.16l.05-.16c.05-.11.11-.38.11-.43v-.16c0-.16-.05-.38-.11-.48l-.05-.11c-.11-.11-.11-.21-.11-.32v-1.66c-.11-.16-.27-.27-.48-.27h-.16c-1.23.59-2.36,1.13-3.22,1.5-.48.21-.86.32-1.13.32-.32,0-.48-.11-.64-.38-.48-.86-.97-2.2-1.29-3.65-.05-.21-.05-.38-.05-.59,0-.48.21-.91,1.07-1.13,1.4-.32,3.11-.75,5.1-1.29.38-.32.64-.64.75-1.02v-1.18c0-.11,0-.21.11-.32l.11-.16c.05-.05.05-.16.05-.21,0-.11,0-.16-.05-.22l-.11-.21c-.05-.11-.05-.21-.05-.32l.16-1.02-.16-1.29-.11-4.94c-.11-.32-.27-.54-.59-.64l-4.4.05c-1.45,0-1.93-1.13-1.93-1.77,0-.7.43-1.88,1.77-1.88.8,0,1.66.48,1.66,1.02.05.38.32.59.86.59h2.15c.21-.11.38-.27.43-.48l-.21-10.09c0-.43.16-.97.48-1.02.48-.11,1.34-.16,2.25-.16.75,0,1.56.05,2.09.16.59.11.91.59.91,1.07l.11,9.87c.11.27.27.43.54.43.16,0,.32-.05.48-.16l.27-.32c.32-.43.7-.86,1.13-1.34.43-.43.86-.7,1.34-.7.43,0,.86.16,1.34.59.86.8,1.5,1.5,1.93,2.2.21.32.32.64.32.91,0,.59-.48.97-1.45.97h-1.56c-.11,0-.21,0-.32-.05l-.43-.16c-.05-.05-.27-.05-.48-.05s-.38,0-.48.05l-.43.16c-.11.05-.21.05-.32.05h-.7c-.97.11-1.13.32-1.13,1.13l.11,7.73ZM76.94,81.66c.75,0,1.07-.11,1.45-.54.54-.59,1.07-1.18,1.56-1.77.7-.86,1.4-1.29,2.15-1.29s1.56.43,2.41,1.34c.75.75,1.23,1.34,1.82,2.15.27.38.43.75.43,1.07,0,.7-.7,1.18-1.88,1.23l-3.43.11h-.75c-.54,0-.97,0-1.34-.05-1.02-.11-1.82-.16-2.47-.16h-6.01c-.11,0-.21,0-.32-.05l-.32-.11c-.11,0-.21-.05-.32-.05s-.21.05-.27.05l-.21.11c-.11.11-.21.11-.32.11h-13.74c-1.29,0-1.88-.97-1.88-1.82,0-1.02.54-1.99,1.77-1.99h.11c.8,0,1.5.43,1.61.86.16.59.54.86,1.07.86l18.89-.05ZM58.16,50.54c-1.23,0-1.99-.75-1.99-1.77,0-1.29.91-1.77,1.82-1.77.75,0,1.5.54,1.5.97,0,.48.38.54.8.54l5.2-.05c.54-.16.7-.48.7-.97l-.11-4.18c0-.11,0-.22.05-.32v-.21c0-.11,0-.21-.05-.32l-.05-.21c0-.05-.05-.11-.05-.16s.05-.11.05-.16l.05-.38v-.27c0-.27,0-.54-.05-.64l-.16-.48c0-.05-.05-.11-.05-.16s.05-.11.05-.16l.05-.32c.05-.16.05-.32.05-.48s0-.32-.05-.43v-.64c0-.59.32-.8.86-.86.27,0,.64-.05,1.07-.05,1.02,0,2.36.11,3.27.27.48.11.64.75.64,1.29v9.12c0,.43.21.64.59.75l4.02-.05c.48,0,.8-.05,1.23-.54.43-.48,1.13-1.39,1.5-1.88.75-.97,1.4-1.45,2.15-1.45.59,0,1.29.38,2.09,1.18,1.13,1.07,1.99,2.09,2.36,2.68.21.38.32.64.32.97,0,.7-.7,1.13-1.5,1.13-.75,0-4.18-.11-4.83-.21h-.21c-.21,0-.43.05-.7.11-.32.11-.59.16-.97.16s-.8-.05-1.5-.16l-18.19.16ZM64.76,62.77c1.23,3.49,2.58,7.78,2.58,10.95v.16c0,.7-.27,1.18-.86,1.5-1.02.48-1.88.7-2.95.7-.27,0-.59-.05-.91-.05-.97-.05-1.23-.54-1.23-1.29,0-4.56-.7-13.36-1.56-18.08-.05-.27-.11-.54-.11-.7,0-.38.16-.59.43-.75.16-.05.27-.11.43-.11.32,0,.59.16.8.48.91,1.39,1.66,3,2.41,4.78.11.27,0,.59,0,.86,0,.11.05.16.05.27.11.22.54.32.64.54l.27.75ZM79.35,64.06c0,.11,0,.21-.05.32-.54,1.45-1.4,3.6-1.93,4.78-1.4,3.17-3,6.71-5.26,10.09-.21.38-.54.48-.8.48-.11,0-.21,0-.32-.05-.27-.05-.48-.38-.48-.75,0-.16.05-.32.11-.54,1.13-3.6,2.36-8.26,3.11-11.97.86-4.19,1.77-9.01,2.04-11.21.11-.97.7-1.18,1.45-1.18.64,0,2.25.54,3.76.91.75.21,1.07.59,1.07,1.18,0,.38-.16.86-.38,1.34-.27.64-.7,1.45-.8,2.09-.16,1.02-.43,2.04-.75,2.9-.05.11-.11.21-.16.27l-.32.38c-.16.16-.27.38-.27.59v.38Z"/>
        <path class="cls-3" d="M130.56,77.34c.21.16,1.4.75,1.82.97,1.07.38,2.2.7,3.43,1.02,2.09.48,5.79.75,8,.75h.91c1.13-.11,2.36.38,3.33.38.21,0,.43-.05.59-.11.05-.05.59-.11.8-.11,3.6-.11,12.18-.32,13.9-.32h.38c.38,0,.8.05.8.64,0,.64-.11,1.56-.21,2.36-.11.64-.22,1.18-.27,1.4-.11.38-.27.64-.48.75-.21.16-.48.16-.75.16-.38,0-.7-.05-.97-.05-1.72,0-8.16-.11-9.66-.11-3,0-5.96-.05-8.91-.38-4.02-.38-6.87-.59-9.71-1.61-.38-.16-1.07-.48-1.82-.86-.48-.22-.8-.8-1.23-1.07-.38-.22-.91-.11-1.18-.27-.16-.11-.27-.22-.32-.27-.48-.32-1.07-.8-1.72-1.4-.21-.16-.38-.27-.59-.27-.11,0-.27.05-.43.16-1.02.91-2.25,1.93-3.54,2.9-.7.54-1.45,1.13-2.25,1.61-.59.43-1.23.8-1.88,1.18-.86.54-1.72.97-2.58,1.45-.43.27-.8.48-1.23.7-.27.11-.48.21-.8.21h-.21c-.32-.05-.59-.38-.59-.64v-.11c.05-.27.32-.54.64-.8s1.07-.91,1.93-1.72c.54-.48,1.07-1.07,1.66-1.61.38-.38,1.02-.54,1.4-.86.27-.27.21-.75.43-.97.38-.43,1.56-1.66,1.77-1.88.7-.75,1.23-1.34,1.77-1.99l.91-1.13c.16-.27.21-.48.21-.7,0-.11,0-.27-.05-.38l-.27-.54c-.21-.48-.43-.97-.59-1.45-.38-1.45-.64-2.63-.64-3.43v-.21c0-.38.11-.7.43-.8.11-.05.16-.05.27-.05.27,0,.48.27.7.75.38.97.7,1.99,1.61,3.38l.11.16c.11.11.21.16.27.16.16,0,.27-.11.43-.27.48-.64.97-1.18,1.23-1.61.32-.54,2.04-3.06,2.36-3.59.05-.16.16-.32.16-.54,0-.16-.11-.32-.32-.38-.11-.05-.21-.05-.43-.05-.32,0-.7.05-.86.05h-1.02c-.11,0-.16,0-.32-.05-.16-.05-.27-.16-.43-.16-.11-.05-.21-.05-.32-.05-.21,0-.43.16-.64.27-.11.05-.48.05-1.02.11h-.38c-.48.11-1.02.27-1.39.54-1.07,1.02-2.36,2.2-2.95,2.79-.91.97-3.92,4.56-4.78,5.58-.21.27-.48.59-.7.75-.11.11-.21.11-.32.11-.16,0-.32-.16-.48-.32-.05-.11-.05-.21-.05-.38s0-.38.05-.64c.27-1.07,1.88-4.67,2.41-5.58l1.66-2.84c.27-.48.86-.8,1.13-1.23.21-.27.05-.75.21-1.02.48-.8,1.45-2.25,2.68-3.76l.16-.16.21-.27.32-.43c.05-.05.05-.16.05-.22,0-.21-.43-.21-1.29-.21h-5.9c-1.56,0-2.31-.7-2.31-1.82s1.02-1.82,1.88-1.82c.8,0,1.56.54,1.88,1.18.05.11.05.21.16.27.11.11.48.16.7.16h.32l3.27-.05c.97,0,1.34-.54,1.34-1.18v-.8c0-.38.38-.75.38-1.07s-.21-.59-.32-.86c-.05-.11-.05-.22-.05-.32-.05-1.02-.38-1.29-1.39-1.29h-3.33c-1.56,0-2.15-.97-2.15-1.61,0-.91.8-1.82,1.82-1.82.97,0,1.5.59,1.88,1.23.11.22.43.22.7.22h1.07c.91,0,1.34-.11,1.34-.59l-.16-.86v-.11c0-.27.21-.38.27-.7v-.48c0-.11-.05-.16-.05-.27-.05-.16-.05-.32-.05-.54-.11-.64-.48-.8-1.34-.8h-1.4c-.7,0-3.06.05-3.38.05-1.45,0-2.04-1.13-2.04-1.77s.43-1.82,1.82-1.82c.91,0,1.45.38,1.77.97l.38.54c.11.05.7.11,1.13.11h1.72c.97,0,1.29-.16,1.34-.8-.05-2.15-.11-4.51-.21-5.2,0-.22-.11-.48-.11-.75,0-.11,0-.21.05-.32.16-.27.64-.48,2.04-.48.91,0,2.04.05,2.31.05.8.11,1.39.27,1.39.64,0,.8-.11,2.9-.21,3.65-.05.7-.16,1.34-.16,2.04v.11l.05.43c.05.16.11.27.27.27.11,0,.16,0,.27-.05l.91-.54c.64-.59,2.15-2.31,3.06-2.31.97,0,2.31.97,3,1.77.48.54,1.13,1.29,1.13,2.04s-.7,1.29-1.45,1.29h-1.07c-.75,0-.54-.05-1.29-.05h-.21c-.54,0-1.29.11-1.5.11h-.11c-.32-.05-.54-.21-.8-.21h-.32l-.48.16c-.11.05-.21.05-.32.05-.54.05-.75.27-.86.86v2.31c0,.05.05.11.11.11.11,0,.22-.05.32-.16.32-.27.59-.54.8-.7.21-.16,1.07-.86,1.66-.86.75,0,1.29.43,1.66.64.64.38,1.29.75,1.77,1.23.97.86,1.23,1.66,1.23,2.04,0,.64-.75.86-1.61.86-.38,0-.7-.05-1.13-.05-.32,0-.54.11-.97.11-.11,0-.27-.05-.48-.05h-.54c-.64,0-1.61,0-1.93.05h-.11c-.59,0-.86.32-.86,1.07v3.43c0,.48.05.7.32.7.16,0,.32-.05.64-.27l1.93-1.72c.38-.38,1.07-.91,1.77-.97.64,0,1.4.38,1.88.64,1.39.8,2.79,1.99,2.79,3.06,0,.86-.32,1.45-1.45,1.45h-3.76c-.38,0-.75-.38-1.13-.43-.27,0-.54.38-.75.38h-.38l-3.17.11c-.43.05-.64.11-.64.22,0,.05.05.16.16.27l.59.48c.7.59.75.38,1.13.86.21.27.32.54.32.8s-.16.59-.48.91l-1.18,1.13c-.11.16-.16.21-.16.32s.27.16.75.11l4.18-.05h2.15c1.45,0,2.31.11,2.74,1.02.21.38.27.8.27,1.23,0,.8-.27,1.61-.75,2.31-2.09,3.11-3.7,5.37-5.9,7.67-.11.16-.16.27-.16.43s.11.32.32.48l.8.54ZM145.37,46.54c0-.48.05-.97.11-1.45,0-.11.16-1.77.38-3.06,0-.54-.21-.7-.7-.7-.38.05-.8.11-1.13.11h-.27c-.32-.05-.38-.21-.64-.21-.97.05-5.26.21-5.96.21-1.45,0-2.04-1.13-2.04-1.77,0-.7.48-1.88,1.88-1.88h.16c.75,0,1.23.43,1.61,1.02.11.16.32.48.54.59.05,0,.48.05,1.02.05,1.66,0,4.83-.11,4.94-.11l3.22.05c.8,0,1.61-.05,2.31-.05h2.31c.59,0,1.18-.05,1.61-.27.32-.21.75-.38,1.02-.64.8-.7,2.63-2.79,3.59-2.79,1.07,0,2.52,1.07,3.33,1.93.54.64,1.18,1.45,1.18,2.31,0,.8-.75,1.4-1.45,1.4h-2.47c-.54.05-.91.16-1.34.16-.16,0-.32,0-.54-.05-.64-.16-1.39-.16-2.15-.16-.38,0-.7.05-1.13.11l-.64.05c-.75.05-1.29.27-1.82.75l-.54.48c-.91.8-1.61,1.56-2.36,2.41-.38.43-1.45,1.61-2.09,2.36-.05.11-.11.16-.11.22,0,.11.11.11.32.11l1.23-.22c.16-.05,1.4-.11,1.77-.16.59-.05,1.18-.05,1.88-.05.75,0,1.61-.05,2.74.16l1.77.32c.59.11.86.7,1.34.97.38.21.91.16,1.29.54.8.97,1.39,2.41,1.61,4.67.11,1.07.27,3.59.43,7.46.11,2.15.16,4.56.16,6.65,0,2.36-.05,4.24-.16,4.83v1.07c0,.43,0,.91-.05,1.29,0,.64-.27,1.02-.97,1.13-.59.11-1.34.11-1.72.16-.59.05-4.18.05-4.83.05l-6.06-.05c-.64.05-1.29.43-1.93.48-.32,0-.27-.32-.7-.38h-.38c-.48-.05-1.07-.11-1.61-.11h-.75c-.59,0-.75.16-.75.86v.75c0,.11,0,.22-.05.32-.11.21-.21.48-.75.59-.38.11-.59.16-1.4.16-.54,0-1.39,0-1.88-.05-.43-.05-.59-.11-.59-.48v-.16c0-.32,0-4.56.05-4.94,0-.64.05-1.29.11-1.99.05-.59.16-5.04.21-9.34,0-.54.38-1.13.43-1.66,0-.54-.38-1.13-.38-1.61l.11-4.77.16-2.74-.05-3.59v-.32c.05-.27.05-.54.11-.8,0-.64.11-1.13.75-1.18.38,0,.8.05,1.07.05.64,0,1.07.11,1.72.21.54.11,1.18.43,1.18,1.02v.11c-.11.75-.32,2.79-.32,3.49,0,.64-.11,2.68-.16,3.33-.27,3.11-.43,15.13-.43,19.8v.48c.05.43.32.59.86.59h.21c.75,0,1.07-.16,1.07-1.13v-3.86c0-.48.05-1.07.05-1.66,0-.8-.11-1.66-.11-2.36v-.43c0-.86.16-2.04.16-3.92,0-.48-.05-1.02-.05-1.61s0-3.6-.05-5.47c0-.32-.11-.86-.11-1.29,0-.54.11-.97.43-1.13.32-.11.8-.16,1.23-.16.21,0,.43.05.64.05.32,0,.64.11.91.21.54.32,1.02.75,1.02,1.88v.21l-.05,1.88c.05.32.27.48.64.54h1.13c.32-.05.54-.21.59-.54l-.05-4.29c-.05-.27-.05-1.02-.11-1.72-.05-.43-.27-.59-.8-.54l-.8.05c-1.07.05-1.93.16-2.84.32-.48.05-.7.16-1.07.16h-.16c-.54-.05-.64-.54-.64-.8.05-.38.48-.64,1.13-.86.32-.16.43-.32.43-.64v-1.02ZM148,64.25c0,.59.11.86.54.91h.97c.48,0,.7-.16.8-.54v-5.47c-.05-.54-.32-.75-.86-.75h-.64c-.59,0-.8.16-.8.8v1.18c0,.38-.38.75-.38,1.07,0,.38.38.75.38,1.13v1.66ZM147.95,68.06c0,1.18-.05,2.41-.05,3.43v2.04c0,.8.16,1.13.86,1.13h.43c.54-.05.8-.16.91-.75,0-.27,0-.54.05-.8.05-.64.11-3.6.11-5.2-.05-.54-.16-.75-.54-.86h-1.23c-.32.05-.48.22-.54.64v.38ZM154.76,74.5c1.23-.21,1.18-.91,1.29-1.88.05-.54.11-2.2.11-4.29s0-4.61-.11-6.87c-.11-3.7-.32-7.03-.48-7.89-.22-1.56-.48-2.68-1.07-3.33-.11-.11-.16-.16-.27-.16-.05,0-.11.11-.16.27.05.97.05,2.04.05,2.9v.91c0,1.07-.27,2.15-.27,3.22,0,.43.05.8.11,1.23.11.91.32,1.66.32,2.63v.27c0,2.31,0,7.4-.05,10.03l-.05,2.31c0,.54.11.7.48.7l.11-.05Z"/>
        <path class="cls-3" d="M208.01,65.83c.48,0,.7-.27,1.02-.59s.64-.64,1.13-1.07c.59-.54,1.07-.8,1.66-.8s1.23.27,2.04.97c.64.54,1.02,1.13,1.39,1.72.16.27.27.54.27.8,0,.48-.43.86-1.39.86h-6.87c-.54.11-.75.32-.86.86l-.21,16.04c0,.64-1.23,1.13-1.82,1.23h-1.72c-1.23,0-2.25-.64-2.25-1.13l.27-9.28v-1.66c0-.64-.21-.91-.54-.91-.16,0-.43.16-.75.43l-2.36,2.9c-.32.43-1.02.54-1.4.91-.32.43-.27,1.18-.59,1.56-1.02,1.29-1.93,2.47-2.63,3.49-.27.38-.59.54-.86.54-.05,0-.16,0-.21-.05-.32-.16-.48-.38-.48-.7,0-.16.05-.38.11-.59.48-1.61,1.23-3.22,2.31-5.47,1.39-2.95,2.68-5.15,3.81-7.03.16-.27.21-.48.21-.64,0-.32-.27-.48-.7-.48l-3.06.05c-1.4,0-2.04-.64-2.04-1.66,0-1.07.91-1.72,1.66-1.72.8,0,1.39.43,1.56.91.16.43.54.54.75.54h.54c.27,0,.7.11.8.16l.27.11c.11.05.27.05.48.05.16,0,.38,0,.48-.05l.27-.11c.11-.05.59-.16.86-.16h.75c.54-.05.8-.27.86-.7v-.22l-.05-4.67c0-.97.11-1.61,1.18-1.72.54-.05,1.18-.11,1.72-.11.38,0,.75.05,1.02.05,1.02.11,1.88.38,1.88,1.61l-.05,4.99c.05.43.21.64.54.75h1.02ZM202.22,48.18v.64c0,.7-.91,3.97-2.25,5.85-1.82,2.52-4.13,4.78-7.14,6.28-.43.22-.75.32-1.02.32-.38,0-.59-.21-.7-.48-.05-.11-.11-.22-.11-.32,0-.21.21-.48.59-.86,1.93-1.93,3.33-3.97,4.4-6.92.64-1.72.97-3.76,1.13-6.71-.05-.43-.16-.64-.48-.7l-2.2.05h-.21c-1.23,0-1.82-.54-1.82-1.77,0-1.07.64-1.66,1.66-1.66.48,0,1.02.38,1.23.8.21.38.7.59,1.18.59h.11c.32-.05.48-.16.59-.43,0-.91.05-1.99.05-3,0-.75-.05-1.45-.11-2.04v-.11c0-.86,1.18-1.07,2.15-1.07.59,0,1.29.11,1.88.16,1.07.11,1.56.32,1.61,1.07.05,1.07.05,3.43.05,4.94.05.27.16.43.32.48h3.17c2.63,0,3.76.27,3.76,2.04,0,.38-.05.8-.16,1.29l-.16.97c-.05.11-.05.32-.05.48s0,.32.05.43l.05.16v.16c0,.11,0,.22-.05.32l-.05.11c-.05.11-.05.38-.05.59v.43c0,1.77.16,2.47.8,3.27.27.38.54.54.8.54.32,0,.59-.27.86-.8.48-.91.91-1.98,1.23-2.84.21-.59.43-.86.7-.86.11,0,.21.05.32.11.27.16.38.48.38.86,0,.22,0,.43-.05.7-.16,1.29-.48,4.35-1.07,5.9-.59,1.45-1.45,2.04-2.36,2.04h-.11c-1.99,0-3.81-.91-4.61-2.2-.05-.16-.05-.32-.11-.48-.05-.27-.21-.54-.38-.54-.11,0-.43-.21-.48-.32-.75-1.61-.91-2.84-.91-4.56v-.97c0-.86.16-1.56.16-3v-.59c0-.91-.27-1.23-1.18-1.29-.59.05-.8.22-.91.7-.05.43-.16.91-.32,1.56l-.16.7ZM213.7,72.59c.38.38.64.75.64,1.23,0,.27-.11.64-.32,1.02-.54,1.07-1.29,1.72-2.04,2.2-.38.21-.64.32-.91.32s-.48-.11-.7-.27c-.43-.32-.7-.86-.97-1.61-.05-.11-.11-.43-.38-.64-.11-.11-.16-.27-.16-.43v-.21c0-.21-.16-.43-.27-.54-.38-.38-.64-.86-.91-1.34-.21-.48-.48-.8-.48-1.13,0-.11.05-.16.05-.22.11-.38.32-.7.86-.7.11,0,.22.05.32.05,2.52.54,4.45,1.5,5.26,2.25ZM233.18,80.05c.7,0,1.18,0,1.45-.32.48-.54.97-1.07,1.34-1.45.7-.7,1.34-1.07,1.99-1.07.59,0,1.23.38,1.88,1.02.59.59,1.13,1.23,1.45,1.77.16.32.27.59.27.86,0,.59-.43,1.02-1.13,1.02h-4.02l-1.23-.05-.86.05-.97.11h-4.88c-.27,0-.75-.11-.86-.16l-.27-.11c-.11-.05-.32-.05-.48-.05-.21,0-.38,0-.48.05l-.27.11c-.11.05-.59.16-.86.16h-1.02c-.75,0-1.13.22-1.29.86v1.88c0,.54-.7.8-1.61.86-.64.05-1.34.05-1.93.05-1.34,0-1.77-.38-1.77-1.23l.05-11.27.21-2.74v-.27c0-.27,0-.59-.05-.8l-.11-.54.11-1.93.32-10.62v-.27c0-.64-.11-.97-.32-.97-.11,0-.27.16-.48.54l-.16.11-.86,1.72c-.27.48-.48.7-.8.7-.11,0-.16-.05-.27-.05-.32-.11-.54-.32-.54-.86,0-.16,0-.38.05-.59,1.72-7.19,4.18-14.43,6.01-18.4.48-1.02.86-1.34,1.66-1.34h.38c1.5.16,2.68.32,3.6.75.32.16.54.43.54.8,0,.43-.22.91-.59,1.45-.97,1.4-2.09,3.33-2.68,4.67-.05.11-.16.38-.27.43l-.27.16c-.16.11-.48.54-.54.8l-.05.27c-.05.27-.27.64-.38.8l-.48.7c-.05.11-.05.22-.05.27,0,.38.27.54.91.64.43.11.86.38.86.8.22.22.54.32,1.07.32h7.73c.43,0,.7-.05,1.07-.38.38-.48.97-1.07,1.39-1.5.59-.59,1.23-.97,1.88-.97s1.34.32,2.09,1.02c.54.48,1.07,1.07,1.61,1.77.21.32.32.59.32.86,0,.64-.59,1.07-1.39,1.07l-3.49-.05-.59.11-.86.05-.64-.11h-.64l-.54.11c-.27,0-.32.38-.32.59v.54l.05,5.9c.11.22.27.32.59.43h.27c.32,0,.7-.05.91-.27.43-.43.75-.8,1.02-1.13.59-.59,1.13-.86,1.61-.86.59,0,1.18.32,1.88.97.54.48.97,1.02,1.23,1.45.22.32.27.64.27.91,0,.54-.32.91-.97.91l-6.39-.05c-.21.11-.32.21-.38.48v.86c0,.27.11.91.16,1.07l.05.27v.22c0,.16,0,.43-.05.54l-.16.43c-.05.11-.11.54-.11.86v.16l.05.54v1.93c.05.21.16.38.38.48.64,0,.86,0,1.13-.32.32-.43.64-.75.97-1.02.64-.54,1.18-.91,1.72-.91s1.07.32,1.77,1.02c.54.54.91,1.02,1.34,1.66.16.21.21.43.21.64,0,.54-.43,1.02-1.23,1.02h-5.63c-.54.11-.64.48-.64,1.23l-.05,6.33c0,.91.11,1.34.75,1.5h.32ZM222.98,79.19c.11.64.32.86,1.29.86h2.04c.64-.22.75-.64.75-1.4v-6.98c-.05-.43-.22-.59-.59-.7h-2.31c-.64,0-.97.16-1.13.7l-.05,7.51ZM226.69,68.89c.32-.16.38-.43.38-1.07v-6.17c-.05-.43-.16-.59-.54-.8-.05-.05-.22-.11-.43-.11-.11,0-.21.05-.32.11-.11.05-.64.22-.91.22h-.48c-.59,0-1.02.11-1.23.48l-.05,6.55c.16.59.54.8,1.18.8h2.41ZM224.17,51.61c-.54,0-.8.27-.91.86l-.05,6.01c.11.59.48.64,1.29.64h2.15c.21-.11.32-.21.43-.48v-5.69c0-.75-.05-1.13-.38-1.34h-2.52ZM230.93,38.52c.32-.64.75-.86,1.18-.86h.16c.64,0,2.74.64,3.54,1.23.38.27.59.59.59.97,0,.32-.21.75-.75,1.18-1.56,1.29-4.08,3.76-6.22,6.49-.27.38-.59.54-.86.54-.38,0-.7-.38-.7-.75,0-.16.05-.32.11-.54.32-1.29.7-2.58,1.13-3.81.16-.54.86-.86,1.02-1.34.16-.48-.16-1.07.05-1.5l.75-1.61Z"/>
        <path class="cls-3" d="M282.41,47.48h-8.05l-3.43.11h-.11c-1.29,0-1.88-.8-1.88-1.72,0-1.02.64-1.82,1.66-1.82,1.07,0,1.56.32,1.82.86.22.43.59.59,1.29.59h1.34c.22-.11.27-.27.27-.64v-1.34c0-.27.05-.7.11-.86l.11-.27c.05-.11.05-.27.05-.48s0-.43-.05-.48l-.11-.27c-.05-.16-.11-.59-.11-.86v-.7l-.16-1.77v-.16c0-.59.32-.75,1.07-.8.54-.05,1.18-.05,1.77-.05.7,0,1.34,0,1.72.11.86.22,1.13.48,1.13,1.45l-.11,6.39c0,.27.05.54.38.7.38-.16.64-.38.91-.86.38-.64.97-1.29,1.34-1.72.43-.48.8-.75,1.18-.75.43,0,.86.27,1.39.7.7.59,1.45,1.34,1.93,2.2.32.54.43,1.02.43,1.39,0,.54-.27.86-.86.86h-.11l-1.13-.05-.54.11-.7-.05-.32-.05h-.22c-.16,0-.32,0-.43.05l-.32.11-1.29.11ZM272.43,54.89c-1.29,0-2.09-.64-2.09-1.77,0-1.02.59-1.88,1.77-1.88.97,0,1.29.32,1.56.91.21.48.59.75,1.02.75h4.35c.8,0,1.13-.38,1.5-.91.27-.38.75-1.07,1.18-1.56.27-.27.54-.43.86-.43.43,0,.91.21,1.45.64.59.48,1.29,1.45,1.77,2.25.16.27.27.59.27.91,0,.59-.38,1.07-1.23,1.07h-12.4ZM279.13,60.79c.64,0,1.02-.21,1.45-.91.32-.48.8-1.18,1.23-1.66.38-.43.7-.64,1.07-.64s.8.21,1.34.75,1.29,1.61,1.77,2.47c.21.38.32.7.32.97,0,.7-.59,1.02-1.29,1.02h-2.2c-.27,0-.7-.05-.86-.11l-.27-.11c-.05-.05-.27-.05-.48-.05s-.38,0-.48.05l-.27.11c-.16.05-.59.11-.86.11h-7.3c-1.02,0-1.93-.48-1.93-1.77,0-.7.38-1.72,1.82-1.72.91,0,1.45.38,1.61.97.11.38.48.54,1.02.54h4.29ZM283.91,68.62c.43.22.54.8.86,1.29.16.27.64.38.75.75.11.27.22.59.27.97.16,1.07.22,3.49.22,5.47,0,1.23,0,2.31-.05,2.79-.05.75-.38,2.52-2.95,2.47l-5.58-.11c-.54,0-.86.11-1.02.43l.05,2.36c0,.38-.21.75-.97.91-.54.11-1.66.21-2.68.21-.54,0-1.02,0-1.4-.11-.64-.16-.7-.64-.7-1.5v-1.23c0-.27.05-.64.11-.8l.11-.27c.05-.11.05-.48.05-.75v-.27l-.11-.27c-.05-.16-.11-.59-.11-.86v-.54l.27-5.79v-4.29c0-1.5.11-1.99.91-2.09.21-.05.59-.05.91-.05.91,0,2.04.11,2.63.16.8.11,1.02.59,1.02,1.18v.21l-.16,3.76-.05,2.47.05,4.67c.16.38.43.54.86.54h1.93c.8,0,1.18-.48,1.18-1.82l.05-6.55c0-.91-.16-1.5-.64-1.66-.27-.11-.59-.16-.86-.16-.16,0-.32.05-.48.05h-.16c-.38,0-.59-.16-.7-.48-.05-.11-.05-.16-.05-.27,0-.38.27-.64.75-.86.75-.38,1.82-.59,2.95-.59.91,0,1.82.16,2.58.54l.16.11ZM303.17,66.1c-.11.48-.16,1.07-.43,2.74-.59,3.65-1.77,6.76-4.61,9.87-2.84,3.17-6.92,5.58-9.93,6.71-.38.16-.64.21-.86.21-.32,0-.54-.16-.64-.32s-.16-.32-.16-.48c0-.32.21-.64.54-.86,1.18-.8,2.31-1.66,3.27-2.52.38-.38,1.02-.48,1.39-.86.38-.38.48-1.07.8-1.45.8-.97,1.56-1.99,2.25-3.06,2.63-4.08,3.22-8.58,3.54-14.27.05-1.02.05-1.99.05-2.9,0-.48.21-.8.8-.86.21-.05.59-.05.97-.05,1.07,0,2.52.11,3.22.32.54.16.7.54.7,1.13v.21c-.11,1.07-.16,1.93-.38,2.79-.05.11-.05.21-.05.48v.43c0,.11.05.21.05.32,0,.16-.05.32-.11.43l-.05.11c-.05.11-.11.32-.11.48v.16c0,.05-.05.38-.11.64l-.16.59ZM288.25,72.22c-.22-.21-.32-.48-.32-.7,0-.32.21-.7.59-.97.32-.27.59-.48.86-.75.38-.38,1.02-.54,1.39-.91.27-.32.22-.86.48-1.13.27-.32.48-.64.7-.91,1.29-1.66,1.82-2.47,2.25-3.17.27-.43.48-.59.75-.59.05,0,.11,0,.21.05.38.11.64.32.64.75,0,.11-.05.21-.05.32-.16,1.02-.27,2.2-.97,4.35-.48,1.45-1.13,3.11-2.15,4.83-.32.59-.8.86-1.23.86-.22,0-.43-.05-.64-.16-.54-.27-1.77-1.02-2.52-1.88ZM304.08,42.55l-.05,1.56c-.59,3.81-2.2,7.94-3.97,10.25-2.84,3.7-6.92,5.9-9.77,6.92-.27.11-.48.16-.7.16-.32,0-.54-.16-.7-.48-.05-.11-.11-.27-.11-.38,0-.32.22-.59.64-.91,2.63-1.77,5.15-4.51,6.81-7.73,1.29-2.52,1.77-4.51,2.15-6.92.43-2.68.75-4.94.75-7.35,0-.75.16-1.23.7-1.29.32-.05.91-.05,1.56-.05.97,0,2.15.05,2.52.11.75.11.86.54.86,1.45s-.05,2.63-.21,3.17l-.48,1.5ZM289.97,50.27c-.43-.27-.59-.48-.59-.8,0-.27.16-.59.48-.97.75-.86,1.61-1.99,2.36-3.33,1.02-1.88,1.56-3.22,1.88-4.02.27-.64.48-.7.97-.7.43,0,.7.22.7.86,0,1.45-.11,2.79-.43,5.2-.16,1.13-.48,3.11-.91,4.4-.16.48-.43.7-.86.7-.16,0-.32,0-.48-.05-1.02-.21-2.31-.8-3.11-1.29ZM314.71,79.51l1.13.59,1.88.91c.43.22.64.38.64.7,0,.11-.05.32-.16.54-.54.97-1.77,2.58-2.58,3.38-.38.38-.7.54-1.07.54s-.8-.21-1.29-.54c-2.95-2.09-5.15-4.72-7.19-7.99-1.82-2.95-2.79-6.01-3.11-8.16v-.32c0-.54.22-.8.38-.91.11-.05.22-.05.32-.05.27,0,.54.16.75.59l.54,1.18c.11.11.27.16.38.16.16,0,.38-.05.54-.22.64-.54,1.82-2.15,2.68-3.54,1.23-1.99,1.77-2.79,2.09-3.49.32-.64.7-.91,1.18-.91.22,0,.38.05.59.16.91.43,2.25,1.45,3.11,2.2.48.43.7.75.7,1.02,0,.32-.27.64-.8,1.07-.75.64-1.56,1.34-3.11,2.25-1.93,1.13-3.38,1.88-4.94,2.84-.38.22-.59.59-.59.97,0,.16.05.27.11.43.64.8,1.29,1.5,1.99,2.2,1.29,1.29,2.68,2.31,3.86,3l1.13,1.07.86.32ZM308.91,56.71l-.59-.64-1.13-.86c-.43-.64-1.07-1.56-1.56-2.52-.59-1.18-1.4-2.9-1.82-3.97-.11-.27-.16-.48-.16-.7,0-.32.16-.48.38-.64.16-.11.27-.16.43-.16.21,0,.43.16.64.43l.48.59c.16.05.32.11.43.11.16,0,.32-.05.48-.16.8-.64,2.04-2.47,3.01-3.92,1.18-1.77,1.82-2.9,2.2-3.65.27-.54.54-.86.91-.86.11,0,.27.05.43.11,1.23.54,2.47,1.45,3.38,2.25.38.32.48.59.48.91,0,.48-.38.91-.8,1.29-.64.59-1.99,1.56-3.06,2.25-.32.21-.91.11-1.34.38s-.64.8-1.07,1.02l-2.68,1.5c-.27.16-.38.32-.38.54,0,.16.05.32.22.54.86.8,1.77,1.56,2.68,2.2,2.31,1.61,5.37,3.11,7.24,3.97.43.22.7.43.7.75,0,.16,0,.27-.11.43-.91,1.56-1.82,2.47-2.79,3.43-.27.27-.59.43-.86.43-.22,0-.48-.11-.7-.27-1.56-1.07-3.33-2.68-4.24-3.49l-.8-1.29Z"/>
        <path class="cls-3" d="M351.14,50.24l-3.81,5.04c-.27.32-.54.48-.86.48-.11,0-.27-.05-.38-.11-.21-.11-.27-.27-.27-.48s.05-.48.16-.75c.8-2.31,2.2-5.63,3.65-8.75.22-.48.8-.8,1.02-1.29.27-.48.16-1.13.38-1.61.86-1.82,1.66-3.38,2.31-4.45.75-1.23,1.34-1.72,2.25-1.72.27,0,.59.05.97.16.86.21,2.15.54,3,.97.38.21.59.43.59.75,0,.48-.32,1.13-1.23,2.2l-2.31,2.74-2.47,4.02c-.11.11-.16.21-.21.27l-2.79,2.52ZM359.94,75.14c0,.7.22,1.13.75,1.18,2.04-.48,3.81-.97,4.94-1.34.32-.11.59-.16.75-.16.22,0,.32.05.43.16.05.11.05.21.11.32,0,.32-.11.54-.59,1.02-1.5,1.5-4.4,3.22-7.51,4.78-.48.27-1.13.16-1.61.38-.48.27-.8.8-1.29,1.07l-4.29,1.88c-.75.32-1.29.43-1.66.43-.59,0-.91-.27-1.23-.75-.38-.54-1.23-2.41-1.66-3.7-.05-.22-.11-.43-.11-.59,0-.64.43-1.02,1.45-1.13,1.29-.16,3.17-.48,5.26-.86.54-.21.75-.59.75-1.34l.05-2.58.21-2.25c.05-.16.05-.32.05-.54s0-.43-.05-.54l-.21-2.09-.05-3.6c-.05-.32-.21-.59-.48-.75l-5.1.11c-1.39.05-1.77-.75-1.77-1.61s.7-1.61,1.5-1.61c.97,0,1.56.32,1.82.97.16.43.7.43,1.4.43h1.99c.32-.16.48-.32.64-.59l-.05-5.2c0-.64-.16-.97-.43-1.13h-2.63c-1.29,0-1.72-.64-1.72-1.5,0-.91.64-1.82,1.56-1.82.64,0,1.5.32,1.61.86.11.54.48.7,1.29.7l4.4-.05c.75,0,1.18-.27,1.61-.75.27-.32.75-.86,1.13-1.34.43-.54.75-.8,1.18-.8.38,0,.86.21,1.45.7.54.43,1.02.86,1.5,1.56.38.54.54.97.54,1.34,0,.64-.64,1.02-1.56,1.02l-3.7.05c-.48.11-.7.43-.7,1.34v4.72c.05.43.21.75.59.75.05,0,.16,0,.27-.05.27-.11.48-.32.75-.64.38-.48.64-.91,1.23-1.56.27-.32.59-.48.91-.48.38,0,.86.27,1.45.7.86.64,1.34,1.18,1.72,1.72.32.43.43.8.43,1.13,0,.59-.38.91-.97.91l-1.82.05c-.11,0-.21,0-.32-.05l-.43-.16c-.05-.05-.27-.05-.48-.05s-.38,0-.48.05l-.43.16c-.11.05-.21.05-.32.05h-1.29c-.48.11-.7.48-.8,1.23l.05,9.87ZM348.78,72.67v-.11c0-.27.21-.7.16-1.02-.11-.32-.54-.54-.59-.86-.16-.48-.32-.91-.48-1.29-.11-.27-.27-.48-.27-.75,0-.11,0-.16.05-.27.16-.27.48-.38.8-.38h.21c1.56.22,2.47.59,3.38,1.5.64.64,1.13,1.29,1.13,2.58,0,1.39-1.02,2.15-2.25,2.52-.16.05-.38.11-.59.11-.59,0-1.23-.32-1.4-1.18l-.16-.86ZM359.18,42.3c0-.16.05-.27.16-.38.05-.11.16-.11.27-.16.11-.05.27-.05.43-.05s.38,0,.64.11c1.66.64,3.6,1.82,4.45,2.52.86.7,1.34,1.39,1.34,2.09,0,.16-.05.32-.11.48-.38,1.23-1.18,1.93-1.77,2.15-.43.16-.75.21-1.07.21-.7,0-1.13-.38-1.45-1.07-.54-1.29-1.82-4.29-2.52-5.15-.21-.32-.38-.54-.38-.75ZM363.74,66.29c.7,0,2.04.8,2.84,1.5.38.27.54.54.54.8s-.16.48-.43.75c-1.07.97-2.79,2.79-4.18,4.35-.32.32-.59.54-.91.54-.11,0-.22-.05-.32-.11-.21-.16-.27-.43-.27-.7v-.38c.27-2.04.91-4.13,1.23-5.31.32-1.07.59-1.45,1.34-1.45h.16ZM370.51,74.55c.27-.11.38-.32.43-.64,0-.16.05-.27.16-.32,2.15-1.72,3.17-2.74,4.24-3.97.43-.48.8-.64,1.13-.64.21,0,.43.05.7.21.16.11.21.27.21.54,0,.32-.11.75-.27,1.07-1.56,3.43-4.18,7.67-5.96,9.93-.86,1.07-1.39,1.45-1.88,1.45-.21,0-.43-.05-.64-.16-1.18-.54-2.04-1.39-2.58-2.15-.22-.32-.43-.59-.43-.91,0-.22.16-.48.54-.8.8-.64,2.2-1.88,2.84-2.58.05-.05.16-.11.27-.16l.16-.05c.16-.05.16-.16.22-.32.05-.16.11-.21.27-.27l.59-.21ZM384.13,56.52c-.59.11-.91.38-.91,1.34v.22c0,3.97.16,6.65.16,10.89v7.83c0,.54,0,1.02.11,1.34.11.32.16.59.16.75,0,.11,0,.21-.05.32-.21.48-.21,1.23-.21,1.88,0,.7,0,1.61-.16,2.58-.22,1.39-.97,2.2-2.9,2.2-.22,0-.48-.05-.75-.05-2.09-.16-4.35-1.45-5.58-2.47-.43-.32-.54-.64-.54-.91,0-.11.05-.21.05-.32.11-.27.43-.48.91-.48h.16c.64,0,1.45.22,2.04.27h.27c.59,0,.8-.16.8-.8v-18.14c0-.27,0-.48.11-.59.16-.16.27-.27.27-.43,0-.11-.05-.21-.11-.32-.27-.48-.38-.97-.43-1.93l-.05-1.56c-.05-1.02-.11-1.45-.97-1.61h-7.51c-1.02,0-1.93-.75-1.93-1.88,0-.91.64-1.77,1.72-1.77h.11c.8,0,1.56.59,1.66,1.29.05.38.32.48.91.48h1.29c.43,0,.7.11.91.32.11.11.22.16.32.16.16,0,.32-.11.54-.16.48-.16.64-.32,1.13-.32h6.92c.7-.27.91-.64,1.07-1.82.11-1.02.16-2.31.21-3.65-.21-.54-.59-.64-1.34-.7l-2.41-.11-1.18.21c-.05,0-.11.05-.16.05s-.11-.05-.16-.05l-1.45-.21-3.22.11h-.16c-1.07,0-1.99-.59-1.99-1.61s.59-1.93,1.82-1.93c.86,0,1.39.38,1.72,1.02.27.59.64.64,1.29.64h5.85c.8,0,1.18-.16,1.39-.75l-.05-1.93c-.05-2.47-1.18-3.49-4.4-3.49-2.2,0-3.7.32-5.1.64-.86.22-1.56.43-2.25.54-.16,0-.32.05-.43.05-1.13,0-1.88-.7-1.99-1.66v-.16c0-.7.38-1.61,1.39-1.82.21-.05.38-.05.59-.05.54,0,1.07.16,1.5.59.32.27.64.32.97.32h.32c2.52-.27,5.42-.38,7.78-.38,1.07,0,1.99.11,2.79.27.59.11.91.64,1.34.86.54.22,1.13.16,1.5.54.7.64,1.13,1.5,1.39,2.41s.38,2.9.38,4.99-.22,4.18-.22,5.47v.43c0,.27,0,.38.11.38s.32-.16.54-.48l.11-.16c.32-.43.75-.91,1.13-1.29.48-.48.86-.75,1.34-.75s1.02.27,1.72.91c.64.54,1.13.97,1.77,2.04.22.38.38.75.38,1.13,0,.75-.59,1.29-1.82,1.29h-10.52ZM373.19,66.4c-.7,0-1.4-.48-1.88-1.77-.43-1.13-1.18-2.2-1.88-3.22-.27-.32-.43-.59-.43-.91,0-.16.05-.27.16-.43.16-.21.48-.27.75-.27s.54.05.75.11c2.25.7,3.97,1.5,4.78,2.09.48.27.75.75.75,1.29,0,.21-.05.43-.16.7-.38.97-1.5,2.25-2.63,2.41h-.21ZM389.45,69.35c2.2,3.38,3.6,4.61,6.49,7.89.21.22.32.43.32.7,0,.32-.16.64-.54,1.07-.7.8-2.09,2.04-3.17,2.63-.43.27-.8.32-1.07.32-.38,0-.59-.16-.75-.43-.97-1.61-1.93-3.27-2.79-4.99-.21-.48-.11-1.13-.32-1.61-.22-.43-.75-.75-.97-1.18-.32-.86-.64-1.72-.91-2.52-1.02-3.33-1.72-7.19-1.99-10.09v-.32c0-.8.32-.97.64-1.02h.21c.32,0,.64.21.86.8,1.56,4.08,2.47,6.44,3.97,8.75ZM394.33,62.91c-1.18.91-2.58,2.04-4.13,3.43-.38.38-.86.59-1.29.59-.11,0-.22,0-.32-.05-.38-.16-.48-.48-.48-.91,0-.16.05-.32.05-.54.22-1.4.75-3.11,1.45-4.72.7-1.5,1.23-2.04,1.88-2.04.32,0,.64.11,1.02.27,1.02.43,1.82,1.02,2.31,1.66.43.59.64,1.02.64,1.4,0,.32-.16.54-.59.64l-.54.27Z"/>
      </g>
    </g>
  </g>
</svg>