<?xml version="1.0" encoding="UTF-8"?>
<svg id="_찾혘짭찾혗짚찾혘짚찾혘쩌_2" data-name="찾혘짭찾혗짚찾혘짚찾혘쩌 2" xmlns="http://www.w3.org/2000/svg" viewBox="0 0 1013.34 484.79">
  <defs>
    <style>
      .cls-1 {
        fill: #fff4d9;
      }

      .cls-2 {
        fill: #ffe000;
      }

      .cls-3 {
        fill: #ff1e00;
      }

      .cls-4 {
        fill: #ffefc2;
      }
    </style>
  </defs>
  <g id="_찾혘짭찾혗짚찾혘짚찾혘쩌_1-2" data-name="찾혘짭찾혗짚찾혘짚찾혘쩌 1">
    <g>
      <path class="cls-1" d="M1009.65,159.78c4.91-11.85,4.91-24.91,0-36.76-4.91-11.85-14.14-21.08-26-25.99-27.06-11.21-55.64-18.81-84.94-22.6-14.24-1.84-28.72-2.77-43.06-2.77s-30.08,1.02-44.84,3.03c-12.71,1.73-23.99,8.31-31.75,18.53-7.1,9.35-10.44,20.71-9.63,32.3-.51-.23-1.04-.43-1.56-.64-1.21-8.23-4.44-16.13-9.48-22.82-8.13-10.8-20.02-17.7-33.46-19.43-2.12-.27-4.28-.41-6.42-.41-13.23,0-25.5,5.32-34.65,13.99-1.06-7.57-3.9-14.74-8.35-20.98.08-.94.13-1.88.16-2.84.63-23.07-15.2-42.83-36.8-48.01-1.52-2.27-3.24-4.43-5.16-6.46-8.82-9.32-20.75-14.64-33.57-14.98-.43-.01-.87-.02-1.3-.02-15.89,0-29.9,7.55-38.62,19.33-5.1.92-9.88,2.67-14.27,5.05-4.24-2.61-8.9-4.62-13.88-5.81-1.52-2.27-3.24-4.43-5.15-6.46C518.1,5.69,506.17.36,493.34.02c-.44-.01-.87-.02-1.3-.02-15.89,0-29.9,7.55-38.63,19.33-22,3.99-38.61,22.74-39.24,45.95-.02.91-.02,1.81,0,2.71-5.65,7.11-9.29,15.91-10.16,25.58-6.91-7.43-15.93-12.51-26.1-14.44-10.66-2.03-21.48-3.36-32.31-4-8.79-11.55-22.67-18.87-38.22-18.87-1.59,0-3.2.08-4.77.24-8.82.88-17.04,4.09-23.95,9.26-6.22-2.93-13.15-4.56-20.44-4.56-1.82,0-3.67.11-5.48.31-12.75,1.46-24.16,7.79-32.15,17.84-7.98,10.05-11.57,22.6-10.11,35.34.13,1.12.19,2.25.19,3.35,0,1.9-.19,3.79-.57,5.63-1.13,5.52-3.81,9.64-5.87,12.14-8.15,9.91-11.96,22.4-10.72,35.17,1.24,12.77,7.38,24.29,17.28,32.44,2.07,1.71,4.28,3.23,6.59,4.55-1.21,1.22-2.34,2.51-3.41,3.86-.81.09-1.63.17-2.44.3-2.2-1.21-6.66-4.2-12.89-10.99-5.57-6.06-10.42-11.9-15.32-17.85l-1-1.22c-3.51-4.27-6.82-8.3-10.4-12.35-2.82-3.18-5.97-6.59-9.56-9.99,1.82-19.68,2.77-39.21,2.77-57.27,0-10.14-.31-19.53-.92-27.9-1.82-24.97-22.86-44.53-47.89-44.53-1.16,0-2.33.04-3.51.13-12.8.93-24.46,6.8-32.85,16.51-8.39,9.71-12.49,22.1-11.55,34.9.44,6.05.67,13.09.67,20.92,0,13.04-.63,27.47-1.82,42.12-11.3,4.93-21.41,12.49-30.97,23.15-10.55,11.88-19.61,27.1-26.21,44.07-3.09,7.98-5.52,16.09-7.22,24.11C.97,244.85,0,253.53,0,261.78c0,7.34.74,14.1,2.26,20.68,1.42,6.13,3.52,11.94,6.21,17.2,5.25,10.3,13.02,18.98,22.31,25,7.08,4.64,15.12,7.8,23.62,9.38-.16.84-.34,1.67-.45,2.53-3.46,26.26,15.1,50.43,41.35,53.89.1.01.21.03.31.04,2.35.3,9.73,1.19,20.05,2.01.83,5.67,2.09,11.2,3.75,16.55,2.83,9.08,6.83,17.56,11.87,25.15,8.54,12.91,20.3,23.5,33.95,30.58,13.84,7.21,29.55,11.02,46.71,11.31.21,0,.83,0,.84,0,22.11,0,40.98-15.29,46.44-35.84,1.08,1.12,2.15,2.23,3.31,3.28,8.1,7.37,17.82,12.93,28.92,16.52,9.4,3.03,19.6,4.57,30.32,4.58h.03c12.16,0,24.85-1.98,37.74-5.87,10.39-3.14,18.93-9.51,24.88-17.67,1.69,1.35,3.42,2.64,5.24,3.8,10.68,6.86,23.35,10.49,36.64,10.49,0,0,.43,0,.59,0,10.57-.05,20.42-1.52,29.29-4.37,5.58-1.79,10.84-4.15,15.67-7,7.71,4.99,16.77,7.72,26.11,7.72h0c10.71,0,21.01-3.58,29.42-10.11,8.8,11.41,22.58,18.78,38.04,18.78h.11c13.69-.03,27.28-3.83,39.35-11.01,5.05-3.02,9.79-6.61,14.19-10.68,1.58,1.81,3.26,3.55,5.12,5.13,8.67,7.35,19.7,11.4,31.07,11.4,3.33,0,6.61-.34,9.81-1.01,5.66,4.56,12.33,7.79,19.62,9.42.22.05.31.07.52.11,4.22.89,11,1.96,19.37,1.98h.12c7.21,0,13.88-.8,20.47-2.44,10.31-2.59,19.48-7.17,27.35-13.69,5.31-4.43,10.14-9.6,14.7-15.71-.21,19.21,10.65,37.71,29.2,46.24,6.63,3.05,13.69,4.6,20.98,4.6h0c19.54,0,37.45-11.47,45.62-29.22,2.54-5.51,3.98-11.31,4.43-17.18,3.04-.43,7.15-1.13,11.71-2.4,10.17-2.83,19.29-7.61,26.96-14.1,8.45-7.09,15.26-16.21,20.21-27,5.54-12.01,8.34-24.47,8.33-37,0-8.74-1.36-17.25-4.04-25.4,3.37.15,6.53.23,9.42.23h.02c16.01,0,26.49-1.9,29.4-2.5,12.56-2.61,23.36-9.95,30.39-20.68,7.04-10.73,9.48-23.55,6.87-36.12-3.93-18.93-18.92-33.43-37.32-37.26,5.97-5.02,10.76-11.53,13.78-19.17,4.04-10.19,4.48-21.21,1.33-31.55,11.15-4.87,20.25-13.9,25.12-25.65Z"/>
      <path class="cls-3" d="M997.55,154.77c3.57-8.62,3.57-18.12,0-26.74-3.57-8.62-10.29-15.33-18.91-18.9-26-10.76-53.45-18.07-81.61-21.71-13.68-1.77-27.6-2.67-41.38-2.67s-28.9.98-43.07,2.91c-9.24,1.26-17.45,6.05-23.09,13.48-5.65,7.43-8.06,16.62-6.8,25.86,1.96,14.33,12.59,25.74,26.11,29.16-2.94,2-5.58,4.47-7.84,7.34-5.76,7.34-8.32,16.49-7.2,25.74,2.11,17.53,17.01,30.76,34.67,30.76,1.4,0,2.81-.09,4.2-.25,4.04-.49,8.12-.84,12.22-1.07l-1.18,9.16c-15.23-2.72-28.06-3.44-37.38-3.44-14.77,0-24.16,1.7-26.74,2.22-1.62.34-3.17.82-4.7,1.36-2.46-1.95-5.17-3.58-8.1-4.81-.09-.33-.18-.67-.27-1.01-.42-1.6-.88-3.3-1.43-5.18-.86-2.87-2.12-6.72-4.26-11.02-.17-.33-.33-.67-.51-.99l10.25-7.6c11.88-8.8,16.94-24.21,12.59-38.34-3.94-12.82-14.9-22.14-27.93-24.21.67-8.94-1.84-17.68-7.27-24.89-5.99-7.96-14.75-13.05-24.67-14.32-1.57-.2-3.16-.3-4.74-.3-18.31,0-34.22,13.68-36.99,31.81-.23,1.48-.34,2.95-.39,4.42l-16.44-.67c-.46-1.75-1.04-3.48-1.78-5.16,5-5.86,8.08-13.43,8.31-21.8.25-9.31-3.13-18.17-9.53-24.94.51-2.24.81-4.58.88-6.97.51-18.59-13.69-34.24-32.01-35.76-1.57-3.4-3.71-6.55-6.36-9.35-6.42-6.77-15.09-10.65-24.42-10.9-.32,0-.64-.01-.95-.01-13.47,0-25.08,7.46-30.92,18.56-8.64.25-16.44,3.61-22.39,8.98-5.67-5.69-13.27-9.47-21.78-10.18-1.58-3.4-3.71-6.55-6.36-9.35-6.42-6.77-15.09-10.65-24.42-10.9-.32,0-.64-.01-.95-.01-13.47,0-25.09,7.46-30.92,18.56-18.56.54-33.34,15.27-33.85,33.97-.06,2.36.11,4.67.5,6.91-6.49,6.14-10.6,14.78-10.86,24.49-.23,8.62,2.69,16.61,7.72,22.84-4.16,7.5-5.6,16.53-3.34,25.48,3.92,15.54,17.84,26.39,33.86,26.39h0c1.98,0,3.97-.18,5.92-.52-4.32,6.83-7.26,14.32-8.75,22.02-4.18-2.06-8.57-3.74-13.14-4.99-3.02-.83-6.13-1.25-9.25-1.25-9.38,0-18.09,3.8-24.48,10.08-4.41-2.34-9.31-3.77-14.4-4.06,1.11-2.57,1.93-5.32,2.4-8.19,1.72-10.37-1.33-20.45-7.55-27.99,8.81-4.91,15.36-13.54,17.35-24,3.6-18.92-8.86-37.25-27.78-40.85-12.26-2.33-24.74-3.7-37.21-4.08-5.87-11.14-17.53-18.56-30.88-18.56-1.16,0-2.33.06-3.47.17-9.29.92-17.65,5.41-23.57,12.63,0,0-.01.02-.02.03-6.04-4.94-13.76-7.88-22.1-7.88-1.33,0-2.67.08-3.99.23-9.27,1.06-17.57,5.67-23.38,12.98-5.8,7.31-8.42,16.44-7.35,25.7.18,1.61.28,3.24.28,4.85,0,2.79-.28,5.57-.84,8.27-1.67,8.15-5.59,14.19-8.58,17.82-5.93,7.21-8.7,16.29-7.8,25.58.9,9.29,5.37,17.67,12.57,23.59,5.69,4.68,12.75,7.45,20.08,7.9.94,2.28,2.12,4.43,3.49,6.42-3.21,1.21-5.38,2.21-6.44,2.72-6.47,3.16-11.67,8.14-15.11,14.3-.56-.03-1.12-.06-1.69-.06-3.05,0-6.06.39-8.98,1.17-.78-.16-2.08-.56-3.8-1.39-3.67-1.77-9.72-5.7-17.68-14.36-5.79-6.3-10.77-12.29-15.78-18.39l-1.01-1.22c-3.44-4.18-6.68-8.12-10.09-11.98-3.77-4.25-8.16-8.93-13.44-13.32,2.19-21.49,3.35-42.96,3.35-62.63,0-9.83-.3-18.89-.89-26.95-1.33-18.16-16.62-32.39-34.83-32.39-.85,0-1.7.03-2.56.09-19.21,1.4-33.7,18.17-32.29,37.38.47,6.37.7,13.72.7,21.87,0,15.82-.9,33.61-2.59,51.4-1.82.63-3.68,1.32-5.56,2.08-10.15,4.14-19.27,10.81-27.94,20.49-9.53,10.73-17.75,24.59-23.79,40.1-2.84,7.33-5.06,14.76-6.62,22.1-1.7,8.03-2.57,15.8-2.57,23.12,0,6.35.63,12.14,1.92,17.74,1.17,5.08,2.9,9.88,5.12,14.2,4.21,8.26,10.4,15.19,17.81,19.99,7.8,5.11,17.09,8,26.65,8.37.74.03,1.48.05,2.16.05h.09c2.34,0,4.7-.18,7.04-.52-3.65,4.73-6.14,10.42-6.96,16.69-2.51,19.1,10.98,36.68,30.07,39.19.08.01.17.02.25.03,3.04.39,14.78,1.8,30.37,2.7.39,8.68,1.83,17.05,4.29,24.96,2.46,7.89,5.93,15.24,10.29,21.82,7.31,11.05,17.38,20.12,29.08,26.19,12.02,6.27,25.77,9.58,40.88,9.83.14,0,.61,0,.61,0,18.93,0,34.59-15.4,34.92-34.32.21-11.97-5.66-22.65-14.75-29.11.17,0,.34.02.52.02h0c2.52,0,5.05-.26,7.53-.77,4.3-.89,8.24-2.53,11.79-4.69.35,8.4,2.51,16.62,6.31,23.87,3.08,5.93,7.21,11.26,12.25,15.85,6.71,6.11,14.82,10.73,24.13,13.74,8.1,2.61,16.95,3.94,26.3,3.94h.02c10.88,0,22.3-1.79,33.96-5.31,13.76-4.16,23.07-16.09,24.6-29.54,4.01,6.93,9.67,12.91,16.39,17.19,8.56,5.5,18.78,8.41,29.56,8.41,0,0,.34,0,.46,0,9.37-.04,17.69-1.27,25.41-3.75,6.29-2.02,12.07-4.88,17.12-8.46,1.1-.78,2.17-1.59,3.22-2.44,6.58,7,15.82,11.01,25.45,11.01h0c8.64,0,16.95-3.19,23.38-8.98,4.34-3.91,7.44-8.67,9.34-13.8,1.76,17.62,16.69,31.45,34.75,31.45h.08c11.34-.02,22.63-3.18,32.66-9.16,9.01-5.38,16.94-12.89,23.36-22.07,1.75,6.7,5.48,12.96,11.15,17.78,6.31,5.35,14.33,8.29,22.59,8.29,4.65,0,9.19-.92,13.37-2.65,4.88,5.73,11.45,9.71,18.93,11.39.09.02.28.06.37.08,5.1,1.08,11.03,1.68,16.69,1.69h.08c6.14,0,11.78-.67,17.29-2.05,8.4-2.11,15.84-5.81,22.15-11.05,5.73-4.78,10.87-10.62,15.73-17.91,5.92-8.91,10.96-19.46,14.58-30.56.06-.19.11-.37.17-.56,2.34.5,4.77.78,7.25.78.14,0,.49,0,.63,0,6.78-.12,13.05-2.21,18.35-5.66-1.39,2.28-2.7,4.64-3.85,7.15-1.96,4.25-2.97,8.7-3.15,13.11-4.25,3.5-7.77,7.93-10.15,13.11-8.55,18.59-.39,40.67,18.2,49.23,4.9,2.26,10.12,3.4,15.5,3.4h0c14.45,0,27.68-8.48,33.72-21.6,2.77-6.01,3.82-12.5,3.22-18.92,1.41-1.51,2.69-3.15,3.82-4.91.15-.01.3-.03.45-.04,1.74-.17,3.61-.36,5.65-.62,2.7-.35,6.82-.96,11.39-2.24,8.34-2.32,15.79-6.21,22.05-11.52,6.95-5.83,12.59-13.4,16.73-22.45,4.74-10.27,7.14-20.88,7.13-31.51,0-9.59-1.93-18.85-5.76-27.53-2.09-4.74-4.7-9.19-7.77-13.29,12.63,1.95,23.51,2.55,32,2.55h.02c14.77,0,24.16-1.7,26.74-2.22,9.14-1.9,16.99-7.24,22.11-15.04,5.12-7.8,6.89-17.13,5-26.27-3.35-16.12-17.73-27.83-34.19-27.83-1.68,0-3.37.16-5.04.41,1.05-4.1,1.45-8.38,1.06-12.69-.18-1.95-.52-3.85-.99-5.72,7.26-3.79,13.1-10.09,16.28-18.1,3.43-8.68,3.29-18.17-.42-26.74-1.45-3.35-3.38-6.41-5.71-9.09.13,0,.38,0,.38,0,14.18,0,26.85-8.47,32.28-21.57Z"/>
      <g>
        <g>
          <g>
            <path class="cls-4" d="M96.81,276.4c5.67-9.76,10.2-21.84,14.09-35.53,3.5-12.36,6.42-26.04,8.81-40.26,3.89,3.3,8.38,8.33,13.68,14.75,5.94,7.16,12.95,15.95,21.85,25.65,11.34,12.34,22,20.05,31.56,24.65,9.54,4.61,17.96,6.03,24.31,6.02,7.13,0,11.6-1.72,12.68-2.19,5.53-2.4,8.08-8.82,5.68-14.35-2.35-5.42-8.55-7.94-14-5.79v-.03c-.08.02-1.59.53-4.35.53-3.21-.01-8.14-.65-14.84-3.86-6.68-3.22-15.15-9.08-24.95-19.75-6.34-6.9-11.72-13.4-16.64-19.37-3.69-4.48-7.11-8.67-10.52-12.54-5.12-5.78-10.2-10.92-16.39-14.88-1.47-.93-3-1.79-4.6-2.55.2-1.63.42-3.26.61-4.9,2.83-24.25,4.25-48.62,4.25-69.55,0-9.14-.27-17.62-.82-25.2-.44-6.01-5.67-10.53-11.68-10.09-6.01.44-10.53,5.67-10.09,11.68.51,6.91.77,14.91.77,23.61.01,21.04-1.53,46.21-4.57,70.85-5.89.59-11.98,2.26-18.54,4.89-7.41,3.02-13.6,8.12-19.04,14.19-8.12,9.14-14.63,20.69-19.34,32.82-2.35,6.06-4.22,12.27-5.53,18.42-1.3,6.15-2.05,12.23-2.05,18.12,0,4.23.38,8.35,1.3,12.35.69,2.99,1.69,5.92,3.12,8.7,2.12,4.16,5.32,8.05,9.57,10.81,4.24,2.78,9.35,4.27,14.62,4.47.36.02.72.02,1.08.02,3.65,0,7.23-.8,10.43-2.19,3.01-1.31,5.71-3.09,8.12-5.16,4.53-3.9,8.17-8.77,11.44-14.34ZM215.46,249.36h0v-.03s0,.03,0,.03ZM215.41,249.38h0v-.02s0,.02,0,.02ZM75.12,269.76c-2,2.74-3.89,4.52-5.3,5.43-.71.46-1.28.72-1.75.88-.47.15-.84.2-1.26.21h-.17c-1.76-.09-2.7-.44-3.38-.81-.51-.29-.91-.62-1.37-1.18-.68-.82-1.45-2.22-2.02-4.36-.58-2.13-.93-4.93-.93-8.17,0-5.35.95-11.86,2.78-18.55,2.72-10.05,7.39-20.56,12.91-28.83,2.75-4.14,5.71-7.72,8.6-10.44,2.89-2.73,5.69-4.56,8-5.48,2.64-1.07,4.99-1.84,7.1-2.4-1.32,7.93-2.8,15.64-4.44,22.96-2.03,9.05-4.31,17.5-6.78,24.99-3.69,11.22-7.96,20.3-12,25.76Z"/>
            <path class="cls-4" d="M259.21,250.39c5.65-2.1,19.35-6.28,38.94-6.28,6.3,0,13.2.43,20.67,1.5.14.02.26.03.4.05.01,0,.02,0,.03,0,8.36,1.18,16.17,1.67,23.33,1.67,31.26-.01,50.27-9.12,51.33-9.64,5.42-2.65,7.66-9.19,5.01-14.6-2.64-5.4-9.14-7.64-14.55-5.03h0s-.98.46-2.86,1.16c-5.65,2.1-19.35,6.28-38.94,6.28-3.84,0-7.94-.19-12.23-.55l-3.7-37.12c1.58-.05,3.19-.08,4.87-.08,7.61,0,16.28.55,25.67,2.12,5.95.99,11.57-3.03,12.56-8.98.99-5.95-3.03-11.57-8.98-12.56-10.72-1.78-20.59-2.41-29.26-2.41-2.46,0-4.78.06-7.04.15l-3.2-32.16c3.36-.17,6.63-.25,9.8-.25,14.16,0,26.32,1.58,35.81,3.38,5.92,1.13,11.64-2.76,12.76-8.68,1.13-5.92-2.76-11.64-8.68-12.76-10.56-2.01-24.12-3.77-39.89-3.77-3.86,0-7.85.12-11.96.35l-.89-8.96c-.6-6-5.94-10.38-11.94-9.78-6,.6-10.38,5.94-9.78,11.94l.91,9.17c-10.28,1.65-19.62,3.9-27.86,6.39.03-.97.07-1.95.07-2.88,0-3.79-.25-7.17-.58-10.06-.69-5.99-6.1-10.29-12.09-9.6-5.99.69-10.29,6.1-9.6,12.09.25,2.18.43,4.73.43,7.58,0,3.89-.34,8.32-1.33,13.1-2.84,13.82-9.58,23.41-13.56,28.25-3.83,4.66-3.16,11.53,1.49,15.37,4.66,3.83,11.53,3.16,15.37-1.49,4.29-5.22,11.02-14.59,15.45-27.88,9.35-3.44,20.94-6.83,34.38-9.09l3.18,31.96c-14.39,2.34-26.32,6.05-35.15,9.43-5.63,2.15-8.45,8.46-6.3,14.09s8.46,8.45,14.09,6.3c7.47-2.86,17.48-6,29.52-8.06l3.24,32.58c-3.46-.21-6.82-.33-10.03-.33-31.26.01-50.27,9.12-51.33,9.64-5.42,2.65-7.66,9.19-5.01,14.6,2.64,5.4,9.14,7.64,14.55,5.03h0s.98-.46,2.86-1.16Z"/>
            <path class="cls-4" d="M427.05,232.47c2.5.69,6.28,2.09,9.98,5.05,2.04,1.63,3.57,3.34,4.68,4.8,3.65,4.8,10.5,5.73,15.3,2.08s5.73-10.5,2.08-15.3c-1.98-2.61-4.73-5.68-8.43-8.64-6.73-5.37-13.46-7.84-17.83-9.04-5.81-1.59-11.82,1.83-13.42,7.64-1.59,5.81,1.83,11.82,7.64,13.42Z"/>
            <path class="cls-4" d="M363.07,312.28c-10.28,4.64-21.08,8.68-32.48,12.04-1.23-1.95-2.4-3.89-3.49-5.8,9.41-2.86,18.41-6.22,26.98-10.1,5.49-2.48,7.93-8.95,5.45-14.44s-8.95-7.93-14.44-5.45c-8.77,3.96-18.04,7.34-27.85,10.13-.6-1.41-1.13-2.71-1.56-3.78-.55-1.38-.95-2.47-1.22-3.19-.13-.36-.23-.63-.29-.8l-.06-.18v-.03s-.01,0-.01,0c-1.93-5.71-8.13-8.77-13.83-6.84-5.71,1.93-8.78,8.13-6.84,13.84.06.16.8,2.34,2.22,5.89-8.22,1.45-16.76,2.54-25.76,3.15-6.02.4-10.56,5.61-10.16,11.62.4,6.02,5.61,10.56,11.62,10.16,11.83-.79,23.09-2.3,33.84-4.46.5.94,1.02,1.9,1.56,2.87.53.95,1.12,1.94,1.68,2.9-12.49,2.54-25.66,4.33-39.61,5.27-6.02.4-10.56,5.61-10.16,11.62.4,6.02,5.61,10.56,11.62,10.16,18.11-1.21,35.13-3.8,51.18-7.58.68.88,1.33,1.77,2.04,2.64.62.75,1.25,1.5,1.89,2.25-1.21.19-2.42.39-3.64.62-9.93,1.96-19.84,5.2-28.23,10.38-4.19,2.61-8.05,5.75-11.15,9.81-1.54,2.03-2.88,4.3-3.87,6.82-.99,2.51-1.61,5.25-1.74,8.08-.03.59-.04,1.18-.04,1.77,0,5.39,1.24,10.66,3.67,15.29,1.81,3.47,4.24,6.57,7.11,9.18,4.31,3.93,9.55,6.77,15.33,8.64,5.79,1.87,12.15,2.78,18.94,2.78,8.4,0,17.47-1.4,27.02-4.28,5.77-1.74,9.04-7.83,7.29-13.61s-7.83-9.04-13.61-7.29c-7.74,2.34-14.75,3.35-20.71,3.35-4.29,0-8.02-.52-11.1-1.38-2.31-.65-4.25-1.48-5.81-2.4-2.35-1.4-3.84-2.93-4.81-4.53-.95-1.61-1.48-3.35-1.5-5.74,0-.23,0-.47.02-.71.03-.51.13-.94.47-1.61.29-.58.8-1.31,1.59-2.14,1.38-1.46,3.67-3.17,6.63-4.73,4.42-2.36,10.27-4.39,16.32-5.74,6.05-1.36,12.33-2.05,17.58-2.05,4.15-.02,7.7.47,9.63,1.06,5.21,1.54,10.74-.97,13.01-5.91,2.27-4.94.58-10.77-3.98-13.72-5.48-3.54-10.62-8.13-15.32-13.26,9.55-3.12,18.74-6.68,27.56-10.67,5.49-2.48,7.93-8.95,5.45-14.44s-8.95-7.93-14.44-5.45Z"/>
            <path class="cls-4" d="M479.7,373.02c-2.7-1.81-5.56-3.52-8.56-5.11.04-1.97.07-3.95.07-5.92,0-6.5-.25-13.03-.71-19.59,6.22-.33,12.74-.53,19.58-.53,1.51,0,3.04,0,4.58.03,6.03.08,10.98-4.75,11.05-10.78.08-6.03-4.75-10.98-10.78-11.05-1.63-.02-3.25-.03-4.85-.03-7.66,0-14.92.24-21.85.63-.4-2.89-.85-5.79-1.33-8.69,10.09-.61,19.64-.87,28.56-.87.72,0,1.43,0,2.14,0,6.03.03,10.94-4.84,10.96-10.87.03-6.03-4.84-10.94-10.87-10.96-.74,0-1.49,0-2.24,0-10.17,0-21.12.32-32.73,1.08-.83-3.74-1.7-7.49-2.63-11.24-1.45-5.85-7.37-9.42-13.22-7.96-5.85,1.45-9.42,7.37-7.96,13.22.66,2.65,1.27,5.29,1.87,7.92-14.58,1.61-28.05,3.74-40.26,6.12-5.92,1.15-9.78,6.88-8.63,12.8s6.88,9.78,12.8,8.63c12.2-2.37,25.72-4.5,40.4-6.06.49,2.91.93,5.81,1.34,8.7-12.37,1.39-23.73,3.26-33.94,5.33-5.91,1.2-9.73,6.96-8.53,12.87,1.2,5.91,6.96,9.73,12.87,8.53,9.6-1.95,20.29-3.7,31.92-5.01.37,5.35.56,10.66.6,15.92-3.73-.69-7.59-1.08-11.56-1.08-2.31,0-4.65.13-7.01.4-5.04.58-9.64,1.82-13.73,3.68-6.13,2.77-11.08,6.94-14.41,11.89-3.34,4.95-5.07,10.64-5.07,16.29,0,3.46.65,6.91,1.96,10.15,1.95,4.86,5.48,9.25,10.2,12.26,4.71,3.03,10.5,4.61,16.65,4.6h.03s0,0,0,0h.05c6.96-.01,13.03-.89,18.36-2.6,4-1.29,7.57-3.06,10.63-5.23,4.61-3.25,7.98-7.37,10.22-11.48,1.31-2.4,2.25-4.78,2.97-7.07,1.89,1.3,3.73,2.67,5.49,4.08,6.3,5.04,11.67,10.56,15.7,15.04,4.03,4.48,10.94,4.84,15.42.81,4.48-4.03,4.84-10.94.81-15.42-6.03-6.69-14.94-15.76-26.37-23.41ZM444.79,390.94c-1.24,1.33-2.84,2.56-5.67,3.63-2.82,1.06-6.92,1.89-12.74,1.89h.01-.03c-1.7,0-2.91-.28-3.78-.61-1.3-.52-1.92-1.11-2.41-1.82-.47-.71-.77-1.62-.77-2.75.01-1.62.63-3.6,2.54-5.54.97-.97,2.28-1.93,4.12-2.76,1.83-.83,4.2-1.53,7.21-1.87,1.53-.17,3.03-.26,4.52-.26,3.63,0,7.19.52,10.7,1.42-.03.29-.05.59-.07.88-.39,1.74-.9,3.37-1.58,4.76-.56,1.13-1.22,2.12-2.04,3.01Z"/>
            <path class="cls-4" d="M649.98,314.45c1.9-3.35,2.75-7.16,2.79-10.73v-.27c0-2.38-.4-4.57-1-6.62-1.06-3.58-2.74-6.82-4.82-9.87-3.15-4.56-7.23-8.71-12.22-12-2.5-1.64-5.23-3.05-8.21-4.08-2.98-1.03-6.24-1.67-9.68-1.67-3.81,0-7.84.83-11.58,2.65-3.75,1.81-7.14,4.54-10.01,7.96-3.54,4.21-5.65,9.08-6.85,13.88-.96,3.89-1.37,7.79-1.5,11.67-2.63-.24-5.35-.51-8.2-.81-13.14-1.4-28.61-3.45-46.46-6.03-5.97-.86-11.5,3.28-12.36,9.24-.86,5.97,3.28,11.5,9.24,12.36,17.99,2.6,33.69,4.68,47.26,6.13,4.15.44,8.07.82,11.83,1.13.08.76.17,1.53.25,2.28.1.9.2,1.77.29,2.65-1.97-.54-3.99-.97-6.09-1.2-1.41-.15-2.8-.23-4.17-.23-4.39,0-8.57.81-12.3,2.38-5.62,2.34-10.07,6.36-12.94,11.01-2.88,4.66-4.3,9.91-4.3,15.17,0,3.35.58,6.72,1.8,9.96,1.82,4.84,5.18,9.39,9.93,12.57,4.74,3.2,10.68,4.89,17.03,4.87,2.79,0,5.68-.31,8.65-.92-2,3.67-4.49,6.98-7.22,9.5-2.15,2-4.43,3.52-6.71,4.52-2.29,1-4.58,1.52-7.05,1.53-6.03.02-10.9,4.92-10.88,10.95.02,6.03,4.92,10.9,10.95,10.88,7.5-.01,14.49-2.25,20.39-5.76,8.88-5.3,15.54-13.27,20.16-22.05,4.6-8.81,7.23-18.54,7.25-28.19,0-4.07-.49-8.15-1.61-12.11-.03-.12-.08-.24-.11-.36.18-2.09.26-4.19.26-6.28,0-6.76-.76-13.52-1.49-20.06.26,0,.53,0,.79,0,5.59,0,10.58-.27,15.13-.91,3.41-.48,6.58-1.17,9.57-2.2,2.24-.77,4.4-1.74,6.44-3.02,3.05-1.89,5.86-4.59,7.75-7.95ZM581.81,364.58c-1.6.32-2.97.45-4.1.45-1.78,0-2.98-.29-3.82-.62-1.24-.52-1.79-1.07-2.3-1.84-.49-.77-.82-1.86-.82-3.1,0-1.73.67-3.5,1.75-4.62.55-.58,1.19-1.05,2.1-1.43.91-.38,2.12-.68,3.86-.68.54,0,1.14.03,1.78.1,2.43.27,4.12.87,5.4,1.56.96.53,1.7,1.12,2.36,1.83.35.38.67.82.98,1.29-.2.75-.42,1.44-.66,2-.63,1.46-1.26,2.29-2.14,3.04-.86.71-2.11,1.44-4.41,2.02ZM623.3,305.98c-3.18.46-7.28.72-12.21.71-.77,0-1.58-.01-2.39-.02.07-3,.36-5.63.88-7.68.61-2.41,1.42-3.98,2.37-5.11,1.17-1.39,2.1-2.01,2.81-2.36.72-.34,1.29-.46,2.07-.47,1.04,0,2.54.32,4.27,1.21,2.59,1.28,5.5,3.84,7.38,6.42.95,1.28,1.66,2.55,2.04,3.49.19.47.31.85.36,1.09l.04.23-.02.23c-.15.12-.47.33-1.03.59-1.17.56-3.4,1.23-6.58,1.68Z"/>
            <path class="cls-4" d="M212.96,417.17c-7.7-.14-13.8-1.58-18.7-3.78-3.68-1.66-6.7-3.76-9.28-6.23-3.85-3.71-6.72-8.35-8.68-13.79-1.95-5.42-2.94-11.61-2.94-18.04,0-6.37,1-12.95,2.81-19.16,5.1-.38,10.17-.88,15.1-1.63,6.08-.92,11.97-2.16,17.51-3.84,5.54-1.69,10.75-3.82,15.47-6.7,3.94-2.4,7.07-5.72,9.15-9.45,2.08-3.73,3.14-7.86,3.14-11.99,0-2.95-.54-5.91-1.66-8.73-1.66-4.21-4.7-8.09-8.82-10.75-4.11-2.68-9.16-4.05-14.42-4.03-4.57,0-9.33.97-14.28,2.84-4.95,1.88-10.11,4.66-15.57,8.45-8.87,6.19-15.7,14.9-20.68,24.72-2.44.06-4.87.09-7.29.09-13.41,0-26.2-.79-35.59-1.58-4.69-.4-8.54-.79-11.19-1.08-1.33-.15-2.36-.27-3.05-.35-.34-.04-.6-.07-.77-.1l-.19-.02h-.05c-5.98-.79-11.46,3.41-12.25,9.39-.79,5.98,3.42,11.46,9.4,12.25.28.03,24.97,3.29,53.32,3.33-1.26,6.01-1.93,12.18-1.93,18.34,0,7.67,1.03,15.35,3.31,22.69,1.71,5.5,4.14,10.82,7.39,15.71,4.86,7.34,11.63,13.72,20.16,18.15,8.52,4.44,18.68,6.92,30.19,7.11,6.03.11,11-4.69,11.11-10.72.11-6.03-4.69-11-10.72-11.11ZM194.24,328.28c4.26-2.96,7.91-4.85,10.84-5.96,2.93-1.11,5.13-1.43,6.55-1.43,1.11,0,1.76.18,2.14.32.56.24.59.35.71.49.1.15.21.43.21.86,0,.4-.11.88-.37,1.36-.27.48-.67.96-1.47,1.46-2.62,1.61-6.19,3.15-10.43,4.43-3.97,1.21-8.51,2.2-13.4,2.98,1.68-1.74,3.42-3.28,5.21-4.52Z"/>
            <path class="cls-4" d="M199.67,362.43c-7.08,1.46-11.64,8.39-10.17,15.48,1.47,7.08,8.39,11.64,15.48,10.17,7.08-1.46,11.64-8.39,10.17-15.48-1.47-7.08-8.39-11.64-15.48-10.17Z"/>
            <path class="cls-4" d="M230.83,349.68c-7.08,1.46-11.64,8.39-10.17,15.48,1.47,7.08,8.39,11.64,15.48,10.17,7.08-1.46,11.64-8.39,10.17-15.48s-8.39-11.64-15.48-10.17Z"/>
            <path class="cls-4" d="M743.88,327.43c-2.71-2.04-5.63-3.58-8.63-4.78-4.14-1.66-8.46-2.68-12.83-3.35,2.71-6.57,5.4-13.45,8.15-20.85,2.1-5.65-.78-11.94-6.43-14.04s-11.94.78-14.04,6.43c-3.77,10.13-7.36,19.19-10.99,27.57-7.44.39-14.4,1.25-20,2.1-3.75.57-6.89,1.15-9.12,1.58-1.11.22-2,.4-2.6.52-.3.06-.53.11-.65.13h-.05s0,.01,0,.01h0s0,.05,0,.05c-.35.07-.7.09-1.05.19-.1.03-.21.06-.52.16-.18.06-.37.12-.93.37-.15.07-.32.15-.56.27-.37.2-.83.41-1.79,1.16-.48.4-1.13.92-1.98,2.06-.42.58-.9,1.33-1.33,2.39-.42,1.05-.79,2.45-.79,4.08-.02,1.83.52,3.78,1.35,5.25.72,1.3,1.58,2.26,2.36,2.94,1.38,1.19,2.47,1.66,3.29,1.99,1.24.46,1.98.56,2.57.65.58.07,1,.08,1.35.08.5,0,.74-.03.94-.04.38-.03.53-.06.67-.08.24-.04.34-.06.43-.07.3-.06.42-.08.65-.13.79-.16,2.33-.48,4.56-.9,3.05-.57,7.36-1.28,12.27-1.89-1.39,2.61-2.8,5.18-4.25,7.72-9.55,16.65-20.89,32.23-36.96,51.17-3.9,4.6-3.34,11.49,1.26,15.39s11.49,3.34,15.39-1.26c16.6-19.56,28.9-36.37,39.25-54.43,3.64-6.35,7.03-12.86,10.29-19.65,4.72.31,9.05,1,12.33,2.09,2.35.76,4.13,1.68,5.28,2.55,1.16.89,1.7,1.61,2.11,2.48.91,1.96,1.61,5.31,1.6,9.48,0,3.87-.56,8.39-1.63,13.07-1.6,7.02-4.36,14.37-7.67,20.59-1.65,3.11-3.44,5.95-5.22,8.32-1.78,2.37-3.58,4.27-5.12,5.55-.8.67-2.13,1.35-3.98,1.81-1.82.46-4.06.67-6.16.67-2.04,0-3.94-.18-5.26-.36-.66-.09-1.18-.18-1.5-.24l-.33-.06h-.04s0,0,0,0c-5.87-1.29-11.68,2.4-12.99,8.27-1.32,5.88,2.38,11.72,8.26,13.04.5.1,5.27,1.18,11.86,1.19,3.4,0,7.31-.29,11.46-1.32,4.13-1.04,8.59-2.86,12.62-6.2,4.24-3.54,7.86-7.89,11.12-12.76,4.85-7.3,8.84-15.81,11.73-24.67,2.87-8.87,4.65-18.05,4.67-26.9-.02-6.35-.91-12.61-3.54-18.49-2.03-4.52-5.26-8.21-8.86-10.91ZM676.36,325.77h0s0,0,0,0ZM672.61,323.32h0s0,0,0,0ZM667.64,322.61h0s0,0,0,0ZM667.23,322.69h0v-.03s0,.03,0,.03ZM666.88,322.75h0v-.04s0,.04,0,.04ZM671.91,343.88h0v.02s0-.02,0-.02ZM672.35,343.7h0v.04s0-.04,0-.04ZM674.73,342.5h0l.02.03-.02-.03ZM676.68,340.84h.01s-.01,0-.01,0Z"/>
            <path class="cls-4" d="M780.49,320.5c-3.65-4.8-10.5-5.73-15.3-2.08-4.8,3.65-5.73,10.5-2.08,15.3,2.08,2.73,4.97,7.29,6.61,13.65.9,3.5,1.2,6.68,1.25,9.25.11,6.03,5.08,10.83,11.11,10.72,6.03-.11,10.83-5.08,10.72-11.11-.07-3.93-.52-8.84-1.93-14.31-2.57-9.95-7.11-17.13-10.37-21.41Z"/>
            <path class="cls-4" d="M877.3,320.62c-7.1-4.63-15.51-7.29-24.29-7.29-8.47-.02-17.29,2.55-25.06,7.98-7.79,5.41-14.46,13.54-19.35,24.19-2.52,5.48-.12,11.96,5.35,14.48,5.48,2.52,11.96.12,14.48-5.35,3.56-7.71,7.8-12.48,11.98-15.39,4.19-2.89,8.4-4.05,12.6-4.07,5.77-.02,11.57,2.4,15.81,6.49,2.12,2.04,3.84,4.46,5.04,7.17,1.19,2.72,1.87,5.71,1.87,9.05,0,3.65-.81,7.74-2.92,12.34-1.26,2.72-2.49,4.44-3.61,5.62-.99,1.03-1.9,1.69-2.94,2.24-1.8.96-4.22,1.59-7.55,2.02-2.48.33-5.4.54-8.67.94-2.45.3-5.11.71-7.93,1.47-4.2,1.11-8.83,3.1-12.98,6.52-4.16,3.41-7.67,8.1-10.3,13.86-2.52,5.48-.12,11.96,5.35,14.48,5.48,2.52,11.96.12,14.48-5.35,1.2-2.59,2.37-4.19,3.42-5.28.93-.95,1.79-1.55,2.8-2.07,1.74-.9,4.18-1.51,7.55-1.92,2.51-.32,5.47-.53,8.78-.95,2.48-.32,5.18-.76,8.03-1.56,4.25-1.18,8.9-3.27,13.05-6.78,4.16-3.49,7.67-8.25,10.36-14.11,3.32-7.2,4.93-14.5,4.92-21.46,0-6.37-1.34-12.43-3.72-17.84-3.58-8.13-9.44-14.78-16.54-19.41Z"/>
            <path class="cls-4" d="M822.9,422.68c-6.57-3.02-14.35-.15-17.37,6.42-3.02,6.57-.15,14.35,6.42,17.37,6.57,3.02,14.35.15,17.37-6.42,3.02-6.57.15-14.35-6.42-17.37Z"/>
          </g>
          <g>
            <path class="cls-1" d="M96.81,276.4c5.67-9.76,10.2-21.84,14.09-35.53,3.5-12.36,6.42-26.04,8.81-40.26,3.89,3.3,8.38,8.33,13.68,14.75,5.94,7.16,12.95,15.95,21.85,25.65,11.34,12.34,22,20.05,31.56,24.65,9.54,4.61,17.96,6.03,24.31,6.02,7.13,0,11.6-1.72,12.68-2.19,5.53-2.4,8.08-8.82,5.68-14.35-2.35-5.42-8.55-7.94-14-5.79v-.03c-.08.02-1.59.53-4.35.53-3.21-.01-8.14-.65-14.84-3.86-6.68-3.22-15.15-9.08-24.95-19.75-6.34-6.9-11.72-13.4-16.64-19.37-3.69-4.48-7.11-8.67-10.52-12.54-5.12-5.78-10.2-10.92-16.39-14.88-1.47-.93-3-1.79-4.6-2.55.2-1.63.42-3.26.61-4.9,2.83-24.25,4.25-48.62,4.25-69.55,0-9.14-.27-17.62-.82-25.2-.44-6.01-5.67-10.53-11.68-10.09-6.01.44-10.53,5.67-10.09,11.68.51,6.91.77,14.91.77,23.61.01,21.04-1.53,46.21-4.57,70.85-5.89.59-11.98,2.26-18.54,4.89-7.41,3.02-13.6,8.12-19.04,14.19-8.12,9.14-14.63,20.69-19.34,32.82-2.35,6.06-4.22,12.27-5.53,18.42-1.3,6.15-2.05,12.23-2.05,18.12,0,4.23.38,8.35,1.3,12.35.69,2.99,1.69,5.92,3.12,8.7,2.12,4.16,5.32,8.05,9.57,10.81,4.24,2.78,9.35,4.27,14.62,4.47.36.02.72.02,1.08.02,3.65,0,7.23-.8,10.43-2.19,3.01-1.31,5.71-3.09,8.12-5.16,4.53-3.9,8.17-8.77,11.44-14.34ZM215.46,249.36h0v-.03s0,.03,0,.03ZM215.41,249.38h0v-.02s0,.02,0,.02ZM75.12,269.76c-2,2.74-3.89,4.52-5.3,5.43-.71.46-1.28.72-1.75.88-.47.15-.84.2-1.26.21h-.17c-1.76-.09-2.7-.44-3.38-.81-.51-.29-.91-.62-1.37-1.18-.68-.82-1.45-2.22-2.02-4.36-.58-2.13-.93-4.93-.93-8.17,0-5.35.95-11.86,2.78-18.55,2.72-10.05,7.39-20.56,12.91-28.83,2.75-4.14,5.71-7.72,8.6-10.44,2.89-2.73,5.69-4.56,8-5.48,2.64-1.07,4.99-1.84,7.1-2.4-1.32,7.93-2.8,15.64-4.44,22.96-2.03,9.05-4.31,17.5-6.78,24.99-3.69,11.22-7.96,20.3-12,25.76Z"/>
            <path class="cls-1" d="M259.21,250.39c5.65-2.1,19.35-6.28,38.94-6.28,6.3,0,13.2.43,20.67,1.5.14.02.26.03.4.05.01,0,.02,0,.03,0,8.36,1.18,16.17,1.67,23.33,1.67,31.26-.01,50.27-9.12,51.33-9.64,5.42-2.65,7.66-9.19,5.01-14.6-2.64-5.4-9.14-7.64-14.55-5.03h0s-.98.46-2.86,1.16c-5.65,2.1-19.35,6.28-38.94,6.28-3.84,0-7.94-.19-12.23-.55l-3.7-37.12c1.58-.05,3.19-.08,4.87-.08,7.61,0,16.28.55,25.67,2.12,5.95.99,11.57-3.03,12.56-8.98.99-5.95-3.03-11.57-8.98-12.56-10.72-1.78-20.59-2.41-29.26-2.41-2.46,0-4.78.06-7.04.15l-3.2-32.16c3.36-.17,6.63-.25,9.8-.25,14.16,0,26.32,1.58,35.81,3.38,5.92,1.13,11.64-2.76,12.76-8.68,1.13-5.92-2.76-11.64-8.68-12.76-10.56-2.01-24.12-3.77-39.89-3.77-3.86,0-7.85.12-11.96.35l-.89-8.96c-.6-6-5.94-10.38-11.94-9.78-6,.6-10.38,5.94-9.78,11.94l.91,9.17c-10.28,1.65-19.62,3.9-27.86,6.39.03-.97.07-1.95.07-2.88,0-3.79-.25-7.17-.58-10.06-.69-5.99-6.1-10.29-12.09-9.6-5.99.69-10.29,6.1-9.6,12.09.25,2.18.43,4.73.43,7.58,0,3.89-.34,8.32-1.33,13.1-2.84,13.82-9.58,23.41-13.56,28.25-3.83,4.66-3.16,11.53,1.49,15.37,4.66,3.83,11.53,3.16,15.37-1.49,4.29-5.22,11.02-14.59,15.45-27.88,9.35-3.44,20.94-6.83,34.38-9.09l3.18,31.96c-14.39,2.34-26.32,6.05-35.15,9.43-5.63,2.15-8.45,8.46-6.3,14.09s8.46,8.45,14.09,6.3c7.47-2.86,17.48-6,29.52-8.06l3.24,32.58c-3.46-.21-6.82-.33-10.03-.33-31.26.01-50.27,9.12-51.33,9.64-5.42,2.65-7.66,9.19-5.01,14.6,2.64,5.4,9.14,7.64,14.55,5.03h0s.98-.46,2.86-1.16Z"/>
            <path class="cls-1" d="M427.05,232.47c2.5.69,6.28,2.09,9.98,5.05,2.04,1.63,3.57,3.34,4.68,4.8,3.65,4.8,10.5,5.73,15.3,2.08s5.73-10.5,2.08-15.3c-1.98-2.61-4.73-5.68-8.43-8.64-6.73-5.37-13.46-7.84-17.83-9.04-5.81-1.59-11.82,1.83-13.42,7.64-1.59,5.81,1.83,11.82,7.64,13.42Z"/>
            <path class="cls-1" d="M363.07,312.28c-10.28,4.64-21.08,8.68-32.48,12.04-1.23-1.95-2.4-3.89-3.49-5.8,9.41-2.86,18.41-6.22,26.98-10.1,5.49-2.48,7.93-8.95,5.45-14.44s-8.95-7.93-14.44-5.45c-8.77,3.96-18.04,7.34-27.85,10.13-.6-1.41-1.13-2.71-1.56-3.78-.55-1.38-.95-2.47-1.22-3.19-.13-.36-.23-.63-.29-.8l-.06-.18v-.03s-.01,0-.01,0c-1.93-5.71-8.13-8.77-13.83-6.84-5.71,1.93-8.78,8.13-6.84,13.84.06.16.8,2.34,2.22,5.89-8.22,1.45-16.76,2.54-25.76,3.15-6.02.4-10.56,5.61-10.16,11.62.4,6.02,5.61,10.56,11.62,10.16,11.83-.79,23.09-2.3,33.84-4.46.5.94,1.02,1.9,1.56,2.87.53.95,1.12,1.94,1.68,2.9-12.49,2.54-25.66,4.33-39.61,5.27-6.02.4-10.56,5.61-10.16,11.62.4,6.02,5.61,10.56,11.62,10.16,18.11-1.21,35.13-3.8,51.18-7.58.68.88,1.33,1.77,2.04,2.64.62.75,1.25,1.5,1.89,2.25-1.21.19-2.42.39-3.64.62-9.93,1.96-19.84,5.2-28.23,10.38-4.19,2.61-8.05,5.75-11.15,9.81-1.54,2.03-2.88,4.3-3.87,6.82-.99,2.51-1.61,5.25-1.74,8.08-.03.59-.04,1.18-.04,1.77,0,5.39,1.24,10.66,3.67,15.29,1.81,3.47,4.24,6.57,7.11,9.18,4.31,3.93,9.55,6.77,15.33,8.64,5.79,1.87,12.15,2.78,18.94,2.78,8.4,0,17.47-1.4,27.02-4.28,5.77-1.74,9.04-7.83,7.29-13.61s-7.83-9.04-13.61-7.29c-7.74,2.34-14.75,3.35-20.71,3.35-4.29,0-8.02-.52-11.1-1.38-2.31-.65-4.25-1.48-5.81-2.4-2.35-1.4-3.84-2.93-4.81-4.53-.95-1.61-1.48-3.35-1.5-5.74,0-.23,0-.47.02-.71.03-.51.13-.94.47-1.61.29-.58.8-1.31,1.59-2.14,1.38-1.46,3.67-3.17,6.63-4.73,4.42-2.36,10.27-4.39,16.32-5.74,6.05-1.36,12.33-2.05,17.58-2.05,4.15-.02,7.7.47,9.63,1.06,5.21,1.54,10.74-.97,13.01-5.91,2.27-4.94.58-10.77-3.98-13.72-5.48-3.54-10.62-8.13-15.32-13.26,9.55-3.12,18.74-6.68,27.56-10.67,5.49-2.48,7.93-8.95,5.45-14.44s-8.95-7.93-14.44-5.45Z"/>
            <path class="cls-1" d="M479.7,373.02c-2.7-1.81-5.56-3.52-8.56-5.11.04-1.97.07-3.95.07-5.92,0-6.5-.25-13.03-.71-19.59,6.22-.33,12.74-.53,19.58-.53,1.51,0,3.04,0,4.58.03,6.03.08,10.98-4.75,11.05-10.78.08-6.03-4.75-10.98-10.78-11.05-1.63-.02-3.25-.03-4.85-.03-7.66,0-14.92.24-21.85.63-.4-2.89-.85-5.79-1.33-8.69,10.09-.61,19.64-.87,28.56-.87.72,0,1.43,0,2.14,0,6.03.03,10.94-4.84,10.96-10.87.03-6.03-4.84-10.94-10.87-10.96-.74,0-1.49,0-2.24,0-10.17,0-21.12.32-32.73,1.08-.83-3.74-1.7-7.49-2.63-11.24-1.45-5.85-7.37-9.42-13.22-7.96-5.85,1.45-9.42,7.37-7.96,13.22.66,2.65,1.27,5.29,1.87,7.92-14.58,1.61-28.05,3.74-40.26,6.12-5.92,1.15-9.78,6.88-8.63,12.8s6.88,9.78,12.8,8.63c12.2-2.37,25.72-4.5,40.4-6.06.49,2.91.93,5.81,1.34,8.7-12.37,1.39-23.73,3.26-33.94,5.33-5.91,1.2-9.73,6.96-8.53,12.87,1.2,5.91,6.96,9.73,12.87,8.53,9.6-1.95,20.29-3.7,31.92-5.01.37,5.35.56,10.66.6,15.92-3.73-.69-7.59-1.08-11.56-1.08-2.31,0-4.65.13-7.01.4-5.04.58-9.64,1.82-13.73,3.68-6.13,2.77-11.08,6.94-14.41,11.89-3.34,4.95-5.07,10.64-5.07,16.29,0,3.46.65,6.91,1.96,10.15,1.95,4.86,5.48,9.25,10.2,12.26,4.71,3.03,10.5,4.61,16.65,4.6h.03s0,0,0,0h.05c6.96-.01,13.03-.89,18.36-2.6,4-1.29,7.57-3.06,10.63-5.23,4.61-3.25,7.98-7.37,10.22-11.48,1.31-2.4,2.25-4.78,2.97-7.07,1.89,1.3,3.73,2.67,5.49,4.08,6.3,5.04,11.67,10.56,15.7,15.04,4.03,4.48,10.94,4.84,15.42.81,4.48-4.03,4.84-10.94.81-15.42-6.03-6.69-14.94-15.76-26.37-23.41ZM444.79,390.94c-1.24,1.33-2.84,2.56-5.67,3.63-2.82,1.06-6.92,1.89-12.74,1.89h.01-.03c-1.7,0-2.91-.28-3.78-.61-1.3-.52-1.92-1.11-2.41-1.82-.47-.71-.77-1.62-.77-2.75.01-1.62.63-3.6,2.54-5.54.97-.97,2.28-1.93,4.12-2.76,1.83-.83,4.2-1.53,7.21-1.87,1.53-.17,3.03-.26,4.52-.26,3.63,0,7.19.52,10.7,1.42-.03.29-.05.59-.07.88-.39,1.74-.9,3.37-1.58,4.76-.56,1.13-1.22,2.12-2.04,3.01Z"/>
            <path class="cls-1" d="M649.98,314.45c1.9-3.35,2.75-7.16,2.79-10.73v-.27c0-2.38-.4-4.57-1-6.62-1.06-3.58-2.74-6.82-4.82-9.87-3.15-4.56-7.23-8.71-12.22-12-2.5-1.64-5.23-3.05-8.21-4.08-2.98-1.03-6.24-1.67-9.68-1.67-3.81,0-7.84.83-11.58,2.65-3.75,1.81-7.14,4.54-10.01,7.96-3.54,4.21-5.65,9.08-6.85,13.88-.96,3.89-1.37,7.79-1.5,11.67-2.63-.24-5.35-.51-8.2-.81-13.14-1.4-28.61-3.45-46.46-6.03-5.97-.86-11.5,3.28-12.36,9.24-.86,5.97,3.28,11.5,9.24,12.36,17.99,2.6,33.69,4.68,47.26,6.13,4.15.44,8.07.82,11.83,1.13.08.76.17,1.53.25,2.28.1.9.2,1.77.29,2.65-1.97-.54-3.99-.97-6.09-1.2-1.41-.15-2.8-.23-4.17-.23-4.39,0-8.57.81-12.3,2.38-5.62,2.34-10.07,6.36-12.94,11.01-2.88,4.66-4.3,9.91-4.3,15.17,0,3.35.58,6.72,1.8,9.96,1.82,4.84,5.18,9.39,9.93,12.57,4.74,3.2,10.68,4.89,17.03,4.87,2.79,0,5.68-.31,8.65-.92-2,3.67-4.49,6.98-7.22,9.5-2.15,2-4.43,3.52-6.71,4.52-2.29,1-4.58,1.52-7.05,1.53-6.03.02-10.9,4.92-10.88,10.95.02,6.03,4.92,10.9,10.95,10.88,7.5-.01,14.49-2.25,20.39-5.76,8.88-5.3,15.54-13.27,20.16-22.05,4.6-8.81,7.23-18.54,7.25-28.19,0-4.07-.49-8.15-1.61-12.11-.03-.12-.08-.24-.11-.36.18-2.09.26-4.19.26-6.28,0-6.76-.76-13.52-1.49-20.06.26,0,.53,0,.79,0,5.59,0,10.58-.27,15.13-.91,3.41-.48,6.58-1.17,9.57-2.2,2.24-.77,4.4-1.74,6.44-3.02,3.05-1.89,5.86-4.59,7.75-7.95ZM581.81,364.58c-1.6.32-2.97.45-4.1.45-1.78,0-2.98-.29-3.82-.62-1.24-.52-1.79-1.07-2.3-1.84-.49-.77-.82-1.86-.82-3.1,0-1.73.67-3.5,1.75-4.62.55-.58,1.19-1.05,2.1-1.43.91-.38,2.12-.68,3.86-.68.54,0,1.14.03,1.78.1,2.43.27,4.12.87,5.4,1.56.96.53,1.7,1.12,2.36,1.83.35.38.67.82.98,1.29-.2.75-.42,1.44-.66,2-.63,1.46-1.26,2.29-2.14,3.04-.86.71-2.11,1.44-4.41,2.02ZM623.3,305.98c-3.18.46-7.28.72-12.21.71-.77,0-1.58-.01-2.39-.02.07-3,.36-5.63.88-7.68.61-2.41,1.42-3.98,2.37-5.11,1.17-1.39,2.1-2.01,2.81-2.36.72-.34,1.29-.46,2.07-.47,1.04,0,2.54.32,4.27,1.21,2.59,1.28,5.5,3.84,7.38,6.42.95,1.28,1.66,2.55,2.04,3.49.19.47.31.85.36,1.09l.04.23-.02.23c-.15.12-.47.33-1.03.59-1.17.56-3.4,1.23-6.58,1.68Z"/>
            <path class="cls-1" d="M212.96,417.17c-7.7-.14-13.8-1.58-18.7-3.78-3.68-1.66-6.7-3.76-9.28-6.23-3.85-3.71-6.72-8.35-8.68-13.79-1.95-5.42-2.94-11.61-2.94-18.04,0-6.37,1-12.95,2.81-19.16,5.1-.38,10.17-.88,15.1-1.63,6.08-.92,11.97-2.16,17.51-3.84,5.54-1.69,10.75-3.82,15.47-6.7,3.94-2.4,7.07-5.72,9.15-9.45,2.08-3.73,3.14-7.86,3.14-11.99,0-2.95-.54-5.91-1.66-8.73-1.66-4.21-4.7-8.09-8.82-10.75-4.11-2.68-9.16-4.05-14.42-4.03-4.57,0-9.33.97-14.28,2.84-4.95,1.88-10.11,4.66-15.57,8.45-8.87,6.19-15.7,14.9-20.68,24.72-2.44.06-4.87.09-7.29.09-13.41,0-26.2-.79-35.59-1.58-4.69-.4-8.54-.79-11.19-1.08-1.33-.15-2.36-.27-3.05-.35-.34-.04-.6-.07-.77-.1l-.19-.02h-.05c-5.98-.79-11.46,3.41-12.25,9.39-.79,5.98,3.42,11.46,9.4,12.25.28.03,24.97,3.29,53.32,3.33-1.26,6.01-1.93,12.18-1.93,18.34,0,7.67,1.03,15.35,3.31,22.69,1.71,5.5,4.14,10.82,7.39,15.71,4.86,7.34,11.63,13.72,20.16,18.15,8.52,4.44,18.68,6.92,30.19,7.11,6.03.11,11-4.69,11.11-10.72.11-6.03-4.69-11-10.72-11.11ZM194.24,328.28c4.26-2.96,7.91-4.85,10.84-5.96,2.93-1.11,5.13-1.43,6.55-1.43,1.11,0,1.76.18,2.14.32.56.24.59.35.71.49.1.15.21.43.21.86,0,.4-.11.88-.37,1.36-.27.48-.67.96-1.47,1.46-2.62,1.61-6.19,3.15-10.43,4.43-3.97,1.21-8.51,2.2-13.4,2.98,1.68-1.74,3.42-3.28,5.21-4.52Z"/>
            <path class="cls-1" d="M199.67,362.43c-7.08,1.46-11.64,8.39-10.17,15.48,1.47,7.08,8.39,11.64,15.48,10.17,7.08-1.46,11.64-8.39,10.17-15.48-1.47-7.08-8.39-11.64-15.48-10.17Z"/>
            <path class="cls-1" d="M230.83,349.68c-7.08,1.46-11.64,8.39-10.17,15.48,1.47,7.08,8.39,11.64,15.48,10.17,7.08-1.46,11.64-8.39,10.17-15.48s-8.39-11.64-15.48-10.17Z"/>
            <path class="cls-1" d="M743.88,327.43c-2.71-2.04-5.63-3.58-8.63-4.78-4.14-1.66-8.46-2.68-12.83-3.35,2.71-6.57,5.4-13.45,8.15-20.85,2.1-5.65-.78-11.94-6.43-14.04s-11.94.78-14.04,6.43c-3.77,10.13-7.36,19.19-10.99,27.57-7.44.39-14.4,1.25-20,2.1-3.75.57-6.89,1.15-9.12,1.58-1.11.22-2,.4-2.6.52-.3.06-.53.11-.65.13h-.05s0,.01,0,.01h0s0,.05,0,.05c-.35.07-.7.09-1.05.19-.1.03-.21.06-.52.16-.18.06-.37.12-.93.37-.15.07-.32.15-.56.27-.37.2-.83.41-1.79,1.16-.48.4-1.13.92-1.98,2.06-.42.58-.9,1.33-1.33,2.39-.42,1.05-.79,2.45-.79,4.08-.02,1.83.52,3.78,1.35,5.25.72,1.3,1.58,2.26,2.36,2.94,1.38,1.19,2.47,1.66,3.29,1.99,1.24.46,1.98.56,2.57.65.58.07,1,.08,1.35.08.5,0,.74-.03.94-.04.38-.03.53-.06.67-.08.24-.04.34-.06.43-.07.3-.06.42-.08.65-.13.79-.16,2.33-.48,4.56-.9,3.05-.57,7.36-1.28,12.27-1.89-1.39,2.61-2.8,5.18-4.25,7.72-9.55,16.65-20.89,32.23-36.96,51.17-3.9,4.6-3.34,11.49,1.26,15.39s11.49,3.34,15.39-1.26c16.6-19.56,28.9-36.37,39.25-54.43,3.64-6.35,7.03-12.86,10.29-19.65,4.72.31,9.05,1,12.33,2.09,2.35.76,4.13,1.68,5.28,2.55,1.16.89,1.7,1.61,2.11,2.48.91,1.96,1.61,5.31,1.6,9.48,0,3.87-.56,8.39-1.63,13.07-1.6,7.02-4.36,14.37-7.67,20.59-1.65,3.11-3.44,5.95-5.22,8.32-1.78,2.37-3.58,4.27-5.12,5.55-.8.67-2.13,1.35-3.98,1.81-1.82.46-4.06.67-6.16.67-2.04,0-3.94-.18-5.26-.36-.66-.09-1.18-.18-1.5-.24l-.33-.06h-.04s0,0,0,0c-5.87-1.29-11.68,2.4-12.99,8.27-1.32,5.88,2.38,11.72,8.26,13.04.5.1,5.27,1.18,11.86,1.19,3.4,0,7.31-.29,11.46-1.32,4.13-1.04,8.59-2.86,12.62-6.2,4.24-3.54,7.86-7.89,11.12-12.76,4.85-7.3,8.84-15.81,11.73-24.67,2.87-8.87,4.65-18.05,4.67-26.9-.02-6.35-.91-12.61-3.54-18.49-2.03-4.52-5.26-8.21-8.86-10.91ZM676.36,325.77h0s0,0,0,0ZM672.61,323.32h0s0,0,0,0ZM667.64,322.61h0s0,0,0,0ZM667.23,322.69h0v-.03s0,.03,0,.03ZM666.88,322.75h0v-.04s0,.04,0,.04ZM671.91,343.88h0v.02s0-.02,0-.02ZM672.35,343.7h0v.04s0-.04,0-.04ZM674.73,342.5h0l.02.03-.02-.03ZM676.68,340.84h.01s-.01,0-.01,0Z"/>
            <path class="cls-1" d="M780.49,320.5c-3.65-4.8-10.5-5.73-15.3-2.08-4.8,3.65-5.73,10.5-2.08,15.3,2.08,2.73,4.97,7.29,6.61,13.65.9,3.5,1.2,6.68,1.25,9.25.11,6.03,5.08,10.83,11.11,10.72,6.03-.11,10.83-5.08,10.72-11.11-.07-3.93-.52-8.84-1.93-14.31-2.57-9.95-7.11-17.13-10.37-21.41Z"/>
            <path class="cls-1" d="M877.3,320.62c-7.1-4.63-15.51-7.29-24.29-7.29-8.47-.02-17.29,2.55-25.06,7.98-7.79,5.41-14.46,13.54-19.35,24.19-2.52,5.48-.12,11.96,5.35,14.48,5.48,2.52,11.96.12,14.48-5.35,3.56-7.71,7.8-12.48,11.98-15.39,4.19-2.89,8.4-4.05,12.6-4.07,5.77-.02,11.57,2.4,15.81,6.49,2.12,2.04,3.84,4.46,5.04,7.17,1.19,2.72,1.87,5.71,1.87,9.05,0,3.65-.81,7.74-2.92,12.34-1.26,2.72-2.49,4.44-3.61,5.62-.99,1.03-1.9,1.69-2.94,2.24-1.8.96-4.22,1.59-7.55,2.02-2.48.33-5.4.54-8.67.94-2.45.3-5.11.71-7.93,1.47-4.2,1.11-8.83,3.1-12.98,6.52-4.16,3.41-7.67,8.1-10.3,13.86-2.52,5.48-.12,11.96,5.35,14.48,5.48,2.52,11.96.12,14.48-5.35,1.2-2.59,2.37-4.19,3.42-5.28.93-.95,1.79-1.55,2.8-2.07,1.74-.9,4.18-1.51,7.55-1.92,2.51-.32,5.47-.53,8.78-.95,2.48-.32,5.18-.76,8.03-1.56,4.25-1.18,8.9-3.27,13.05-6.78,4.16-3.49,7.67-8.25,10.36-14.11,3.32-7.2,4.93-14.5,4.92-21.46,0-6.37-1.34-12.43-3.72-17.84-3.58-8.13-9.44-14.78-16.54-19.41Z"/>
            <path class="cls-1" d="M822.9,422.68c-6.57-3.02-14.35-.15-17.37,6.42-3.02,6.57-.15,14.35,6.42,17.37,6.57,3.02,14.35.15,17.37-6.42,3.02-6.57.15-14.35-6.42-17.37Z"/>
          </g>
        </g>
        <g>
          <g>
            <path class="cls-2" d="M969.45,131.31c-29.79-12.33-56.56-17.63-75.5-20.08-13.79-1.78-26.64-2.47-38.3-2.47-15.61,0-29.09,1.23-39.82,2.69-5.97.81-10.16,6.32-9.34,12.29.81,5.97,6.32,10.16,12.29,9.34,9.93-1.35,22.41-2.49,36.87-2.49,7.68,0,15.94.34,24.65,1.12l-5.38,41.66c-6.93-.57-13.52-.84-19.64-.84-10.85,0-20.35.75-28.14,1.68-5.99.72-10.25,6.16-9.53,12.14.72,5.99,6.16,10.25,12.14,9.53,7.06-.85,15.67-1.53,25.52-1.53,5.26,0,10.92.23,16.84.69l-8.06,62.35c-23.66-7.2-43.73-9.01-57.77-9.01-13.31,0-21.24,1.6-21.85,1.72-5.9,1.23-9.69,7.01-8.47,12.91,1.22,5.89,6.98,9.67,12.87,8.47h0s.05,0,.05,0c.61-.12,6.91-1.27,17.41-1.27,14.38,0,36.6,2.15,63.09,11.99.08.03.15.05.23.08.01,0,.03.01.04.02,29.16,10.8,53.94,13.27,70.43,13.27,13.31,0,21.24-1.6,21.85-1.72,5.9-1.23,9.69-7.01,8.47-12.91-1.22-5.89-6.98-9.67-12.87-8.47h0s-.05,0-.05,0c-.61.12-6.91,1.27-17.41,1.27-12.87,0-32.05-1.74-54.93-9.17l8.63-66.76c11.62,2.1,25.62,5.62,40.76,11.61,5.61,2.22,11.95-.52,14.17-6.13,2.22-5.61-.52-11.95-6.13-14.17-17.18-6.8-32.99-10.7-45.99-12.99l5.38-41.66c16.32,2.77,36.85,7.75,59.15,16.98,5.57,2.31,11.96-.34,14.26-5.91s-.34-11.96-5.91-14.26Z"/>
            <path class="cls-2" d="M923.39,227.19c-9.21-3.33-18.53,3.86-17.65,13.61.44,4.91,3.8,9.26,8.44,10.94,9.21,3.33,18.53-3.86,17.65-13.61-.44-4.91-3.8-9.26-8.44-10.94Z"/>
            <path class="cls-2" d="M716.22,145.41c7.15.92,13.84-4.15,14.94-11.32,1.1-7.17-3.81-13.74-10.96-14.66-7.15-.92-13.84,4.15-14.94,11.32-1.1,7.17,3.81,13.74,10.96,14.66Z"/>
            <path class="cls-2" d="M756.35,244.91c-2.84-.88-4.72-1.89-6.08-2.89-1.2-.88-2.03-1.76-2.78-2.78-1.29-1.77-2.29-4.14-3.22-7.29-.7-2.35-1.34-5.07-2.23-8.08-.68-2.26-1.5-4.69-2.76-7.23-.94-1.9-2.14-3.85-3.71-5.71-2.33-2.79-5.55-5.28-9.27-6.9-1.11-.49-2.26-.88-3.43-1.24l33.37-24.73c3.71-2.75,5.29-7.57,3.93-11.98-1.36-4.41-5.38-7.51-9.99-7.7l-86.53-3.52c-6.02-.25-11.11,4.44-11.35,10.46-.25,6.02,4.44,11.11,10.46,11.35l55.62,2.27-72.25,53.54c-4.76,3.53-5.84,10.24-2.41,15.08,3.43,4.84,10.12,6.05,15.03,2.73h.02c.51-.36,11.14-7.5,23.43-14.41,6.13-3.45,12.69-6.84,18.39-9.24,2.84-1.2,5.48-2.15,7.62-2.75,2.13-.61,3.79-.82,4.35-.8h.15c2.61.15,4.09.61,4.86.96.69.33.92.54,1.25.89.28.31.61.79,1,1.6.69,1.41,1.42,3.84,2.23,6.95.62,2.34,1.32,5.05,2.36,7.99.78,2.21,1.76,4.55,3.08,6.92,1.97,3.55,4.77,7.17,8.55,10.21,3.77,3.05,8.42,5.47,13.86,7.15,5.76,1.78,11.87-1.44,13.65-7.2s-1.44-11.87-7.2-13.65Z"/>
            <path class="cls-2" d="M496.8,168.74c-.09.07-.2.11-.29.18-.12.08-.26.15-.38.23-5.92,4.01-11,8.96-14.72,14.83-3.72,5.85-6.03,12.7-6.21,19.93,0,.34-.01.68-.01,1.02,0,7.3,2.15,14.28,5.77,20.3,5.44,9.06,13.93,16.14,24.07,21.16,10.16,5.01,22.07,7.96,34.86,8.31.83.02,1.67.03,2.49.03,16.71-.02,32.04-4.49,43.91-12.49,5.92-4.01,11-8.96,14.72-14.83,3.72-5.85,6.02-12.7,6.21-19.92h0s0,0,0,0h0c0-.34.01-.68.01-1.02,0-7.3-2.15-14.28-5.77-20.3-5.44-9.06-13.93-16.14-24.07-21.16-10.16-5.01-22.07-7.96-34.86-8.32-.83-.02-1.67-.03-2.49-.03-16.4.02-31.47,4.35-43.24,12.08ZM542.38,232.91c-.63,0-1.26,0-1.9-.03-13.02-.33-24.56-4.35-32.24-9.91-3.85-2.77-6.72-5.87-8.54-8.94-1.83-3.08-2.66-6.04-2.67-9.1v-.43c.09-2.9.94-5.65,2.62-8.45,2.92,3.65,6.92,7.36,12.21,10.61,6.87,4.22,15.82,7.69,27.42,9.78,15.34,2.78,24.21,7.24,29.29,10.85-.29.14-.57.29-.87.43-6.99,3.21-15.77,5.19-25.31,5.19ZM574.18,188.43c3.85,2.77,6.72,5.87,8.54,8.94,1.83,3.08,2.66,6.04,2.67,9.1v.43c-.06,1.73-.4,3.4-1,5.06-.14-.12-.26-.24-.41-.36-7.9-6.4-20.72-13.02-40.84-16.64-8.36-1.51-14.25-3.75-18.39-6.04-3.11-1.72-5.24-3.45-6.77-5.02-.39-.41-.7-.79-1.02-1.17,6.59-2.64,14.51-4.24,23.07-4.24.63,0,1.26,0,1.9.03,13.02.33,24.56,4.35,32.24,9.91Z"/>
            <path class="cls-2" d="M558.33,111.78l24.08.65c-1.06,1.76-2.35,3.57-3.97,5.36-3.49,3.86-7.4,6.48-10.91,8.25-3.51,1.77-6.55,2.65-8.23,3.08-5.85,1.47-9.39,7.41-7.91,13.25,1.47,5.85,7.41,9.39,13.25,7.91,2.64-.67,7.31-2.02,12.72-4.75,5.41-2.73,11.63-6.86,17.27-13.1,1.01-1.12,1.93-2.24,2.8-3.36.41.55.83,1.1,1.27,1.64,5.3,6.54,11.28,11,16.54,14.01,5.25,3.01,9.84,4.62,12.44,5.43,5.76,1.79,11.87-1.43,13.66-7.19,1.79-5.76-1.43-11.87-7.18-13.66-1.66-.51-4.64-1.56-8.05-3.52-3.41-1.96-7.16-4.78-10.44-8.83-1.01-1.24-1.84-2.48-2.6-3.71l22.95.62c6.03.16,11.04-4.59,11.21-10.62.16-6.03-4.59-11.04-10.62-11.21l-27.93-.76.27-9.83,18.42.5c6.03.16,11.04-4.59,11.21-10.62.16-6.03-4.59-11.04-10.62-11.21l-18.42-.5.23-8.43c.16-6.03-4.59-11.04-10.62-11.21-6.03-.16-11.04,4.59-11.21,10.62l-.23,8.43-18.42-.5c-6.03-.16-11.04,4.59-11.21,10.62-.16,6.03,4.59,11.04,10.62,11.21l18.42.5-.27,9.83-27.93-.76c-6.03-.16-11.04,4.59-11.21,10.62-.16,6.03,4.59,11.04,10.62,11.21Z"/>
            <path class="cls-2" d="M451.53,108.88l24.08.65c-1.06,1.76-2.35,3.57-3.97,5.36-3.49,3.86-7.4,6.48-10.91,8.25-3.51,1.77-6.55,2.65-8.23,3.08-5.85,1.47-9.39,7.41-7.91,13.25,1.47,5.85,7.41,9.39,13.25,7.91,2.64-.67,7.31-2.02,12.72-4.75,5.41-2.72,11.63-6.86,17.27-13.1,1.01-1.12,1.93-2.24,2.8-3.36.41.55.83,1.1,1.27,1.64,5.3,6.54,11.28,11,16.54,14.01,5.25,3.01,9.84,4.62,12.44,5.43,5.76,1.79,11.87-1.43,13.66-7.18,1.79-5.76-1.43-11.87-7.18-13.66-1.66-.51-4.64-1.56-8.05-3.52-3.41-1.96-7.16-4.78-10.44-8.83-1.01-1.24-1.84-2.48-2.6-3.71l22.95.62c6.03.16,11.04-4.59,11.21-10.62.16-6.03-4.59-11.04-10.62-11.21l-27.93-.76.27-9.83,18.42.5c6.03.16,11.04-4.59,11.21-10.62.16-6.03-4.59-11.04-10.62-11.21l-18.42-.5.23-8.43c.16-6.03-4.59-11.04-10.62-11.21-6.03-.16-11.04,4.59-11.21,10.62l-.23,8.43-18.42-.5c-6.03-.16-11.04,4.59-11.21,10.62-.16,6.03,4.59,11.04,10.62,11.21l18.42.5-.27,9.83-27.93-.76c-6.03-.16-11.04,4.59-11.21,10.62-.16,6.03,4.59,11.04,10.62,11.21Z"/>
          </g>
          <g>
            <path class="cls-2" d="M969.45,131.31c-29.79-12.33-56.56-17.63-75.5-20.08-13.79-1.78-26.64-2.47-38.3-2.47-15.61,0-29.09,1.23-39.82,2.69-5.97.81-10.16,6.32-9.34,12.29.81,5.97,6.32,10.16,12.29,9.34,9.93-1.35,22.41-2.49,36.87-2.49,7.68,0,15.94.34,24.65,1.12l-5.38,41.66c-6.93-.57-13.52-.84-19.64-.84-10.85,0-20.35.75-28.14,1.68-5.99.72-10.25,6.16-9.53,12.14.72,5.99,6.16,10.25,12.14,9.53,7.06-.85,15.67-1.53,25.52-1.53,5.26,0,10.92.23,16.84.69l-8.06,62.35c-23.66-7.2-43.73-9.01-57.77-9.01-13.31,0-21.24,1.6-21.85,1.72-5.9,1.23-9.69,7.01-8.47,12.91,1.22,5.89,6.98,9.67,12.87,8.47h0s.05,0,.05,0c.61-.12,6.91-1.27,17.41-1.27,14.38,0,36.6,2.15,63.09,11.99.08.03.15.05.23.08.01,0,.03.01.04.02,29.16,10.8,53.94,13.27,70.43,13.27,13.31,0,21.24-1.6,21.85-1.72,5.9-1.23,9.69-7.01,8.47-12.91-1.22-5.89-6.98-9.67-12.87-8.47h0s-.05,0-.05,0c-.61.12-6.91,1.27-17.41,1.27-12.87,0-32.05-1.74-54.93-9.17l8.63-66.76c11.62,2.1,25.62,5.62,40.76,11.61,5.61,2.22,11.95-.52,14.17-6.13,2.22-5.61-.52-11.95-6.13-14.17-17.18-6.8-32.99-10.7-45.99-12.99l5.38-41.66c16.32,2.77,36.85,7.75,59.15,16.98,5.57,2.31,11.96-.34,14.26-5.91s-.34-11.96-5.91-14.26Z"/>
            <path class="cls-2" d="M923.39,227.19c-9.21-3.33-18.53,3.86-17.65,13.61.44,4.91,3.8,9.26,8.44,10.94,9.21,3.33,18.53-3.86,17.65-13.61-.44-4.91-3.8-9.26-8.44-10.94Z"/>
            <path class="cls-2" d="M716.22,145.41c7.15.92,13.84-4.15,14.94-11.32,1.1-7.17-3.81-13.74-10.96-14.66-7.15-.92-13.84,4.15-14.94,11.32-1.1,7.17,3.81,13.74,10.96,14.66Z"/>
            <path class="cls-2" d="M756.35,244.91c-2.84-.88-4.72-1.89-6.08-2.89-1.2-.88-2.03-1.76-2.78-2.78-1.29-1.77-2.29-4.14-3.22-7.29-.7-2.35-1.34-5.07-2.23-8.08-.68-2.26-1.5-4.69-2.76-7.23-.94-1.9-2.14-3.85-3.71-5.71-2.33-2.79-5.55-5.28-9.27-6.9-1.11-.49-2.26-.88-3.43-1.24l33.37-24.73c3.71-2.75,5.29-7.57,3.93-11.98-1.36-4.41-5.38-7.51-9.99-7.7l-86.53-3.52c-6.02-.25-11.11,4.44-11.35,10.46-.25,6.02,4.44,11.11,10.46,11.35l55.62,2.27-72.25,53.54c-4.76,3.53-5.84,10.24-2.41,15.08,3.43,4.84,10.12,6.05,15.03,2.73h.02c.51-.36,11.14-7.5,23.43-14.41,6.13-3.45,12.69-6.84,18.39-9.24,2.84-1.2,5.48-2.15,7.62-2.75,2.13-.61,3.79-.82,4.35-.8h.15c2.61.15,4.09.61,4.86.96.69.33.92.54,1.25.89.28.31.61.79,1,1.6.69,1.41,1.42,3.84,2.23,6.95.62,2.34,1.32,5.05,2.36,7.99.78,2.21,1.76,4.55,3.08,6.92,1.97,3.55,4.77,7.17,8.55,10.21,3.77,3.05,8.42,5.47,13.86,7.15,5.76,1.78,11.87-1.44,13.65-7.2s-1.44-11.87-7.2-13.65Z"/>
            <path class="cls-2" d="M496.8,168.74c-.09.07-.2.11-.29.18-.12.08-.26.15-.38.23-5.92,4.01-11,8.96-14.72,14.83-3.72,5.85-6.03,12.7-6.21,19.93,0,.34-.01.68-.01,1.02,0,7.3,2.15,14.28,5.77,20.3,5.44,9.06,13.93,16.14,24.07,21.16,10.16,5.01,22.07,7.96,34.86,8.31.83.02,1.67.03,2.49.03,16.71-.02,32.04-4.49,43.91-12.49,5.92-4.01,11-8.96,14.72-14.83,3.72-5.85,6.02-12.7,6.21-19.92h0s0,0,0,0h0c0-.34.01-.68.01-1.02,0-7.3-2.15-14.28-5.77-20.3-5.44-9.06-13.93-16.14-24.07-21.16-10.16-5.01-22.07-7.96-34.86-8.32-.83-.02-1.67-.03-2.49-.03-16.4.02-31.47,4.35-43.24,12.08ZM542.38,232.91c-.63,0-1.26,0-1.9-.03-13.02-.33-24.56-4.35-32.24-9.91-3.85-2.77-6.72-5.87-8.54-8.94-1.83-3.08-2.66-6.04-2.67-9.1v-.43c.09-2.9.94-5.65,2.62-8.45,2.92,3.65,6.92,7.36,12.21,10.61,6.87,4.22,15.82,7.69,27.42,9.78,15.34,2.78,24.21,7.24,29.29,10.85-.29.14-.57.29-.87.43-6.99,3.21-15.77,5.19-25.31,5.19ZM574.18,188.43c3.85,2.77,6.72,5.87,8.54,8.94,1.83,3.08,2.66,6.04,2.67,9.1v.43c-.06,1.73-.4,3.4-1,5.06-.14-.12-.26-.24-.41-.36-7.9-6.4-20.72-13.02-40.84-16.64-8.36-1.51-14.25-3.75-18.39-6.04-3.11-1.72-5.24-3.45-6.77-5.02-.39-.41-.7-.79-1.02-1.17,6.59-2.64,14.51-4.24,23.07-4.24.63,0,1.26,0,1.9.03,13.02.33,24.56,4.35,32.24,9.91Z"/>
            <path class="cls-2" d="M558.33,111.78l24.08.65c-1.06,1.76-2.35,3.57-3.97,5.36-3.49,3.86-7.4,6.48-10.91,8.25-3.51,1.77-6.55,2.65-8.23,3.08-5.85,1.47-9.39,7.41-7.91,13.25,1.47,5.85,7.41,9.39,13.25,7.91,2.64-.67,7.31-2.02,12.72-4.75,5.41-2.73,11.63-6.86,17.27-13.1,1.01-1.12,1.93-2.24,2.8-3.36.41.55.83,1.1,1.27,1.64,5.3,6.54,11.28,11,16.54,14.01,5.25,3.01,9.84,4.62,12.44,5.43,5.76,1.79,11.87-1.43,13.66-7.19,1.79-5.76-1.43-11.87-7.18-13.66-1.66-.51-4.64-1.56-8.05-3.52-3.41-1.96-7.16-4.78-10.44-8.83-1.01-1.24-1.84-2.48-2.6-3.71l22.95.62c6.03.16,11.04-4.59,11.21-10.62.16-6.03-4.59-11.04-10.62-11.21l-27.93-.76.27-9.83,18.42.5c6.03.16,11.04-4.59,11.21-10.62.16-6.03-4.59-11.04-10.62-11.21l-18.42-.5.23-8.43c.16-6.03-4.59-11.04-10.62-11.21-6.03-.16-11.04,4.59-11.21,10.62l-.23,8.43-18.42-.5c-6.03-.16-11.04,4.59-11.21,10.62-.16,6.03,4.59,11.04,10.62,11.21l18.42.5-.27,9.83-27.93-.76c-6.03-.16-11.04,4.59-11.21,10.62-.16,6.03,4.59,11.04,10.62,11.21Z"/>
            <path class="cls-2" d="M451.53,108.88l24.08.65c-1.06,1.76-2.35,3.57-3.97,5.36-3.49,3.86-7.4,6.48-10.91,8.25-3.51,1.77-6.55,2.65-8.23,3.08-5.85,1.47-9.39,7.41-7.91,13.25,1.47,5.85,7.41,9.39,13.25,7.91,2.64-.67,7.31-2.02,12.72-4.75,5.41-2.72,11.63-6.86,17.27-13.1,1.01-1.12,1.93-2.24,2.8-3.36.41.55.83,1.1,1.27,1.64,5.3,6.54,11.28,11,16.54,14.01,5.25,3.01,9.84,4.62,12.44,5.43,5.76,1.79,11.87-1.43,13.66-7.18,1.79-5.76-1.43-11.87-7.18-13.66-1.66-.51-4.64-1.56-8.05-3.52-3.41-1.96-7.16-4.78-10.44-8.83-1.01-1.24-1.84-2.48-2.6-3.71l22.95.62c6.03.16,11.04-4.59,11.21-10.62.16-6.03-4.59-11.04-10.62-11.21l-27.93-.76.27-9.83,18.42.5c6.03.16,11.04-4.59,11.21-10.62.16-6.03-4.59-11.04-10.62-11.21l-18.42-.5.23-8.43c.16-6.03-4.59-11.04-10.62-11.21-6.03-.16-11.04,4.59-11.21,10.62l-.23,8.43-18.42-.5c-6.03-.16-11.04,4.59-11.21,10.62-.16,6.03,4.59,11.04,10.62,11.21l18.42.5-.27,9.83-27.93-.76c-6.03-.16-11.04,4.59-11.21,10.62-.16,6.03,4.59,11.04,10.62,11.21Z"/>
          </g>
        </g>
      </g>
    </g>
  </g>
</svg>