<?xml version="1.0" encoding="UTF-8"?>
<svg id="_レイヤー_2" data-name="レイヤー 2" xmlns="http://www.w3.org/2000/svg" viewBox="0 0 1510.2 776">
  <defs>
    <style>
      .cls-1 {
        fill: #fff;
      }

      .cls-2 {
        fill: #ffe600;
      }
    </style>
  </defs>
  <g id="_レイヤー_2のコピー" data-name="レイヤー 2のコピー">
    <g>
      <rect class="cls-2" width="1510.2" height="776"/>
      <g>
        <g>
          <polygon class="cls-1" points="272.8 100 215.2 100 215.2 618.4 186.4 618.4 186.4 272.8 128.8 272.8 128.8 618.4 100 618.4 100 676 388 676 388 618.4 272.8 618.4 272.8 272.8 388 272.8 388 215.2 272.8 215.2 272.8 100"/>
          <path class="cls-1" d="M618.4,100h-57.6v57.6h-115.2v57.6h115.2v57.6h-115.2v57.6h115.2v57.6h-57.6c-31.81,0-57.6,25.79-57.6,57.6v172.8c0,31.81,25.79,57.6,57.6,57.6h115.2v-230.4c31.81,0,57.6,25.79,57.6,57.6v144h57.6v-144c0-63.62-51.58-115.2-115.2-115.2v-57.6s115.2,0,115.2,0v-57.6h-115.2v-57.6h115.2v-57.6h-115.2v-57.6ZM560.8,618.4h-41.6c-8.84,0-16-7.16-16-16v-140.8c0-8.84,7.16-16,16-16h41.6v172.8Z"/>
          <path class="cls-1" d="M911.94,272.94l138.46-86.54v-57.6h-259.2v57.6h138.24l-138.24,86.4v57.6h115.2c63.62,0,115.2,51.58,115.2,115.2v115.2c0,31.81-25.79,57.6-57.6,57.6v-172.8c0-31.81-25.79-57.6-57.6-57.6h-57.6c-31.81,0-57.6,25.79-57.6,57.6v172.8c0,31.81,25.79,57.6,57.6,57.6h115.2c63.62,0,115.2-51.58,115.2-115.2v-115.2c0-93.58-74.4-169.73-167.26-172.66ZM864.8,618.4c-8.84,0-16-7.16-16-16v-140.8c0-8.84,7.16-16,16-16h25.6c8.84,0,16,7.16,16,16v156.8h-41.6Z"/>
          <polygon class="cls-1" points="1194.4 388 1194.4 215.2 1252 215.2 1252 157.6 1194.4 157.6 1194.4 100 1136.8 100 1136.8 157.6 1108 157.6 1108 215.2 1136.8 215.2 1136.8 388 1194.4 388"/>
          <rect class="cls-1" x="1280.8" y="128.8" width="115.2" height="57.6"/>
          <path class="cls-1" d="M1367.2,244h-57.6v144h-57.6c-31.81,0-57.6,25.79-57.6,57.6v172.8c0,31.81,25.79,57.6,57.6,57.6h57.6c31.81,0,57.6-25.79,57.6-57.6v-172.8h28.8v-57.6h-28.8v-144ZM1309.6,618.4h-41.6c-8.84,0-16-7.16-16-16v-140.8c0-8.84,7.16-16,16-16h41.6v172.8Z"/>
        </g>
        <g>
          <polygon points="272.8 100 215.2 100 215.2 618.4 186.4 618.4 186.4 272.8 128.8 272.8 128.8 618.4 100 618.4 100 676 388 676 388 618.4 272.8 618.4 272.8 272.8 388 272.8 388 215.2 272.8 215.2 272.8 100"/>
          <path d="M618.4,100h-57.6v57.6h-115.2v57.6h115.2v57.6h-115.2v57.6h115.2v57.6h-57.6c-31.81,0-57.6,25.79-57.6,57.6v172.8c0,31.81,25.79,57.6,57.6,57.6h115.2v-230.4c31.81,0,57.6,25.79,57.6,57.6v144h57.6v-144c0-63.62-51.58-115.2-115.2-115.2v-57.6s115.2,0,115.2,0v-57.6h-115.2v-57.6h115.2v-57.6h-115.2v-57.6ZM560.8,618.4h-41.6c-8.84,0-16-7.16-16-16v-140.8c0-8.84,7.16-16,16-16h41.6v172.8Z"/>
          <path d="M911.94,272.94l138.46-86.54v-57.6h-259.2v57.6h138.24l-138.24,86.4v57.6h115.2c63.62,0,115.2,51.58,115.2,115.2v115.2c0,31.81-25.79,57.6-57.6,57.6v-172.8c0-31.81-25.79-57.6-57.6-57.6h-57.6c-31.81,0-57.6,25.79-57.6,57.6v172.8c0,31.81,25.79,57.6,57.6,57.6h115.2c63.62,0,115.2-51.58,115.2-115.2v-115.2c0-93.58-74.4-169.73-167.26-172.66ZM864.8,618.4c-8.84,0-16-7.16-16-16v-140.8c0-8.84,7.16-16,16-16h25.6c8.84,0,16,7.16,16,16v156.8h-41.6Z"/>
          <polygon points="1194.4 388 1194.4 215.2 1252 215.2 1252 157.6 1194.4 157.6 1194.4 100 1136.8 100 1136.8 157.6 1108 157.6 1108 215.2 1136.8 215.2 1136.8 388 1194.4 388"/>
          <rect x="1280.8" y="128.8" width="115.2" height="57.6"/>
          <path d="M1367.2,244h-57.6v144h-57.6c-31.81,0-57.6,25.79-57.6,57.6v172.8c0,31.81,25.79,57.6,57.6,57.6h57.6c31.81,0,57.6-25.79,57.6-57.6v-172.8h28.8v-57.6h-28.8v-144ZM1309.6,618.4h-41.6c-8.84,0-16-7.16-16-16v-140.8c0-8.84,7.16-16,16-16h41.6v172.8Z"/>
        </g>
      </g>
    </g>
  </g>
</svg>